<svg width="11" height="9" viewBox="0 0 11 9" fill="none" xmlns="http://www.w3.org/2000/svg">
<path d="M2.80469 4.5L6.01562 1.28906C6.32031 1.00781 6.32031 0.515625 6.01562 0.234375C5.73438 -0.0703125 5.24219 -0.0703125 4.96094 0.234375L1.21094 3.98438C0.90625 4.26562 0.90625 4.75781 1.21094 5.03906L4.96094 8.78906C5.10156 8.92969 5.28906 9 5.5 9C5.6875 9 5.875 8.92969 6.01562 8.78906C6.32031 8.50781 6.32031 8.01562 6.01562 7.73438L2.80469 4.5ZM7.30469 4.5L10.5156 1.28906C10.8203 1.00781 10.8203 0.515625 10.5156 0.234375C10.2344 -0.0703125 9.74219 -0.0703125 9.46094 0.234375L5.71094 3.98438C5.40625 4.26562 5.40625 4.75781 5.71094 5.03906L9.46094 8.78906C9.60156 8.92969 9.78906 9 10 9C10.1875 9 10.375 8.92969 10.5156 8.78906C10.8203 8.50781 10.8203 8.01562 10.5156 7.73438L7.30469 4.5Z" fill="#ACACAC"/>
</svg>
