<svg width="55" height="30" viewBox="0 0 55 30" fill="none" xmlns="http://www.w3.org/2000/svg">
<path d="M16.8109 0H0V30H16.8109V0Z" fill="#80C242"/>
<path d="M13.7685 20.065C13.7685 24.074 11.9841 26.2424 8.30277 26.2424C4.82672 26.2424 3.04565 24.0144 3.04565 20.065V18.3435H7.52811V21.0449C7.52811 22.144 7.82606 22.5611 8.33257 22.5611C8.95826 22.5611 9.2231 22.144 9.2231 21.0449V3.75732H13.7685V20.065Z" fill="white"/>
<path d="M35.6477 0H18.8335V30H35.6477V0Z" fill="#80C242"/>
<path d="M32.9727 20.214C32.9727 24.2231 31.0692 26.3914 27.2389 26.3914C23.4086 26.3914 21.5183 24.1668 21.5183 20.214V9.75936C21.5183 5.747 23.4351 3.6084 27.2389 3.6084C31.0427 3.6084 32.9727 5.747 32.9727 9.75936V10.9247H28.3976V8.93835C28.3976 7.77966 28.0665 7.28308 27.2389 7.28308C26.4113 7.28308 26.0504 7.84918 26.0504 8.93835V21.0747C26.0504 22.2334 26.408 22.7068 27.2389 22.7068C28.0698 22.7068 28.3976 22.2334 28.3976 21.0747V17.1849H32.9727V20.214Z" fill="white"/>
<path d="M54.4747 0H37.6638V30H54.4747V0Z" fill="#80C242"/>
<path d="M51.8032 20.214C51.8032 24.2231 49.903 26.3914 46.0694 26.3914C42.2358 26.3914 40.3389 24.1668 40.3389 20.214V9.75936C40.3389 5.747 42.2689 3.6084 46.0694 3.6084C49.8699 3.6084 51.8032 5.747 51.8032 9.75936V10.9247H47.2281V8.93835C47.2281 7.77966 46.897 7.28308 46.0694 7.28308C45.2418 7.28308 44.8809 7.84918 44.8809 8.93835V21.0747C44.8809 22.2334 45.2384 22.7068 46.0694 22.7068C46.9003 22.7068 47.2281 22.2334 47.2281 21.0747V17.1849H51.8032V20.214Z" fill="white"/>
</svg>
