<svg width="191" height="33" viewBox="0 0 191 33" fill="none" xmlns="http://www.w3.org/2000/svg">
<path d="M18.4919 0H0V33H18.4919V0Z" fill="#80C242"/>
<path d="M15.1454 22.0717C15.1454 26.4817 13.1826 28.8669 9.13317 28.8669C5.30951 28.8669 3.35034 26.4161 3.35034 22.0717V20.1781H8.28104V23.1496C8.28104 24.3586 8.60878 24.8175 9.16595 24.8175C9.8542 24.8175 10.1455 24.3586 10.1455 23.1496V4.1333H15.1454V22.0717Z" fill="white"/>
<path d="M39.2126 0H20.717V33H39.2126V0Z" fill="#80C242"/>
<path d="M36.27 22.2354C36.27 26.6454 34.1761 29.0306 29.9628 29.0306C25.7495 29.0306 23.6702 26.5835 23.6702 22.2354V10.7353C23.6702 6.3217 25.7786 3.96924 29.9628 3.96924C34.147 3.96924 36.27 6.3217 36.27 10.7353V12.0171H31.2374V9.83218C31.2374 8.55763 30.8732 8.01139 29.9628 8.01139C29.0524 8.01139 28.6555 8.6341 28.6555 9.83218V23.1822C28.6555 24.4568 29.0488 24.9775 29.9628 24.9775C30.8769 24.9775 31.2374 24.4568 31.2374 23.1822V18.9034H36.27V22.2354Z" fill="white"/>
<path d="M59.9221 0H41.4302V33H59.9221V0Z" fill="#80C242"/>
<path d="M56.9833 22.2354C56.9833 26.6454 54.8931 29.0306 50.6761 29.0306C46.4592 29.0306 44.3726 26.5835 44.3726 22.2354V10.7353C44.3726 6.3217 46.4956 3.96924 50.6761 3.96924C54.8567 3.96924 56.9833 6.3217 56.9833 10.7353V12.0171H51.9507V9.83218C51.9507 8.55763 51.5865 8.01139 50.6761 8.01139C49.7657 8.01139 49.3688 8.6341 49.3688 9.83218V23.1822C49.3688 24.4568 49.7621 24.9775 50.6761 24.9775C51.5902 24.9775 51.9507 24.4568 51.9507 23.1822V18.9034H56.9833V22.2354Z" fill="white"/>
<path d="M68.3161 9.927V12.7966H70.1369V14.3442H68.3161V21.2159C68.2802 21.6579 68.3738 22.1008 68.5855 22.4905C68.6609 22.6045 68.7638 22.6976 68.8848 22.7613C69.0057 22.8249 69.1408 22.857 69.2774 22.8546C69.4358 22.8546 69.594 22.8436 69.7508 22.8218C69.8965 22.8 70.0713 22.7709 70.2716 22.7272L70.4937 24.2202C70.2301 24.3261 69.9569 24.4065 69.678 24.4605C69.3708 24.52 69.0587 24.5505 68.7458 24.5516C68.388 24.5708 68.0306 24.5083 67.7007 24.3689C67.3707 24.2295 67.0768 24.0167 66.8412 23.7468C66.3897 23.2078 66.1639 22.3581 66.1639 21.1977V14.3442H64.6599V12.7966H66.1639V9.927H68.3161Z" fill="#919195"/>
<path d="M78.1009 14.6209L77.0849 14.5663C76.6751 14.5517 76.2757 14.6966 75.9705 14.9705C75.6476 15.285 75.4139 15.6796 75.2932 16.1139V24.3403H73.1265V12.7965H75.1002L75.2604 14.5371C75.4624 13.9941 75.7878 13.5054 76.2109 13.1096C76.5798 12.7696 77.0639 12.5822 77.5656 12.5852C77.712 12.5847 77.8582 12.5969 78.0025 12.6217C78.1271 12.6373 78.2494 12.6679 78.3667 12.7127L78.1009 14.6209Z" fill="#919195"/>
<path d="M86.8481 22.7928C86.5763 23.3242 86.1725 23.7768 85.6755 24.1074C85.1834 24.4176 84.6112 24.5771 84.0296 24.5662C83.5516 24.5877 83.076 24.4885 82.6464 24.2778C82.2168 24.0672 81.8472 23.7519 81.5715 23.3609C80.9888 22.5549 80.6975 21.3058 80.6975 19.6137V12.7966H82.8533V19.6355C82.8533 20.819 82.9953 21.653 83.2757 22.1482C83.3957 22.3769 83.5781 22.5668 83.8019 22.6958C84.0256 22.8247 84.2814 22.8874 84.5394 22.8765C85.0132 22.8984 85.4819 22.7711 85.8795 22.5124C86.2574 22.2421 86.5535 21.8729 86.7352 21.4454V12.7966H88.902V24.3404H86.972L86.8481 22.7928Z" fill="#919195"/>
<path d="M97.6234 21.4489C97.6285 21.2395 97.5919 21.0311 97.5156 20.8361C97.4393 20.641 97.3249 20.4631 97.1791 20.3127C96.686 19.8793 96.1201 19.5366 95.5077 19.3003C94.5452 18.9652 93.6491 18.4635 92.8602 17.8182C92.5796 17.5612 92.3578 17.2465 92.2101 16.8958C92.0624 16.5451 91.9922 16.1666 92.0045 15.7862C92 15.3539 92.0918 14.9261 92.2732 14.5337C92.4546 14.1413 92.721 13.7942 93.0532 13.5175C93.8228 12.8722 94.8066 12.5394 95.8099 12.5853C96.853 12.5317 97.8746 12.8946 98.6503 13.594C98.9925 13.9133 99.2605 14.3038 99.4354 14.7379C99.6103 15.1721 99.6879 15.6393 99.6627 16.1067L99.6409 16.1686H97.5615C97.5726 15.6581 97.408 15.1593 97.0954 14.7556C96.944 14.5613 96.7483 14.4061 96.5247 14.3028C96.3011 14.1996 96.056 14.1513 95.8099 14.1621C95.5791 14.148 95.3479 14.1815 95.1305 14.2604C94.9131 14.3393 94.7143 14.462 94.5463 14.6209C94.4003 14.7624 94.2848 14.9324 94.2072 15.1203C94.1295 15.3082 94.0912 15.5101 94.0947 15.7134C94.0862 15.9043 94.1171 16.095 94.1854 16.2735C94.2537 16.4521 94.3579 16.6147 94.4917 16.7512C94.9997 17.1657 95.5652 17.5042 96.1704 17.7563C97.1578 18.0656 98.0738 18.5682 98.8652 19.2348C99.1545 19.5042 99.3828 19.8324 99.5348 20.1973C99.6868 20.5622 99.759 20.9554 99.7465 21.3505C99.7573 21.7966 99.6642 22.239 99.4746 22.6428C99.285 23.0467 99.0041 23.4009 98.654 23.6775C97.8364 24.3036 96.824 24.6209 95.7953 24.5733C95.2458 24.6023 94.696 24.5205 94.1787 24.3328C93.6613 24.1451 93.187 23.8554 92.7838 23.4809C92.435 23.1573 92.1608 22.7617 91.9803 22.3215C91.7999 21.8813 91.7174 21.407 91.7386 20.9318L91.7605 20.8662H93.7779C93.7628 21.164 93.8101 21.4616 93.9167 21.74C94.0233 22.0184 94.1869 22.2715 94.397 22.4831C94.7951 22.8191 95.3038 22.9956 95.8245 22.9783C96.3001 23.019 96.7733 22.8756 97.1464 22.5778C97.3031 22.4355 97.427 22.2609 97.5094 22.0659C97.5918 21.871 97.6307 21.6604 97.6234 21.4489Z" fill="#919195"/>
<path d="M105.387 9.927V12.7966H107.208V14.3442H105.387V21.2159C105.352 21.6574 105.444 22.0998 105.653 22.4905C105.73 22.6043 105.833 22.6972 105.955 22.7608C106.076 22.8244 106.212 22.8567 106.349 22.8546C106.507 22.8546 106.665 22.8436 106.822 22.8218C106.968 22.8 107.143 22.7709 107.339 22.7272L107.565 24.2202C107.301 24.3256 107.028 24.406 106.749 24.4605C106.441 24.5199 106.128 24.5503 105.813 24.5516C105.456 24.5708 105.098 24.5083 104.768 24.3689C104.438 24.2295 104.144 24.0167 103.909 23.7468C103.457 23.2078 103.232 22.3581 103.232 21.1977V14.3442H101.728V12.7966H103.232V9.927H105.387Z" fill="#919195"/>
<path d="M121.206 21.4489C121.211 21.2398 121.175 21.0318 121.099 20.8368C121.024 20.6419 120.91 20.4637 120.766 20.3127C120.267 19.8791 119.697 19.5364 119.08 19.3004C118.119 18.9679 117.225 18.4673 116.44 17.8219C116.157 17.566 115.934 17.2516 115.786 16.9007C115.637 16.5497 115.567 16.1707 115.58 15.7899C115.578 15.3577 115.672 14.9304 115.854 14.5383C116.036 14.1462 116.302 13.799 116.633 13.5212C117.402 12.8758 118.386 12.5431 119.389 12.5889C120.432 12.5354 121.454 12.8982 122.23 13.5976C122.572 13.917 122.84 14.3075 123.015 14.7416C123.19 15.1757 123.267 15.643 123.242 16.1103L123.22 16.1722H121.155C121.167 15.6618 121.002 15.163 120.689 14.7593C120.538 14.565 120.342 14.4097 120.119 14.3065C119.895 14.2032 119.65 14.155 119.404 14.1657C119.173 14.1517 118.942 14.1851 118.724 14.2641C118.507 14.343 118.308 14.4657 118.14 14.6246C117.994 14.7661 117.879 14.936 117.801 15.124C117.723 15.3119 117.685 15.5137 117.689 15.717C117.68 15.9068 117.71 16.0964 117.777 16.2742C117.844 16.4519 117.947 16.6143 118.078 16.7512C118.586 17.1657 119.152 17.5042 119.757 17.7563C120.744 18.0656 121.66 18.5682 122.452 19.2348C122.74 19.505 122.967 19.8334 123.119 20.1982C123.27 20.563 123.342 20.9558 123.329 21.3506C123.34 21.7966 123.247 22.239 123.058 22.6429C122.868 23.0467 122.587 23.4009 122.237 23.6775C121.418 24.3045 120.405 24.6218 119.375 24.5734C118.826 24.6026 118.276 24.521 117.76 24.3333C117.243 24.1456 116.769 23.8557 116.367 23.4809C116.018 23.1573 115.744 22.7617 115.563 22.3215C115.383 21.8813 115.3 21.4071 115.322 20.9318L115.343 20.8662H117.361C117.345 21.1641 117.392 21.462 117.498 21.7405C117.605 22.0191 117.769 22.2721 117.98 22.4831C118.378 22.8192 118.887 22.9956 119.407 22.9783C119.884 23.0192 120.359 22.8758 120.733 22.5778C120.889 22.4352 121.012 22.2604 121.094 22.0655C121.176 21.8705 121.214 21.6601 121.206 21.4489Z" fill="#919195"/>
<path d="M130.369 24.566C129.75 24.5873 129.135 24.4698 128.567 24.2222C128 23.9745 127.496 23.603 127.091 23.1349C126.243 22.1088 125.803 20.8055 125.857 19.4751V17.789C125.803 16.4406 126.231 15.1171 127.066 14.0564C127.43 13.5914 127.898 13.2176 128.432 12.9648C128.966 12.712 129.552 12.587 130.143 12.5998C131.454 12.5998 132.46 13.0453 133.162 13.9362C133.863 14.8272 134.215 16.0277 134.218 17.5378V19.0308H128.001V19.4896C127.965 20.3616 128.195 21.224 128.661 21.9623C128.859 22.2733 129.135 22.5273 129.461 22.6991C129.787 22.8709 130.153 22.9546 130.521 22.9419C131.048 22.9557 131.571 22.8589 132.058 22.6578C132.512 22.4494 132.926 22.1635 133.282 21.813L133.963 23.1567C133.558 23.5975 133.06 23.9432 132.506 24.1691C131.829 24.4492 131.101 24.5844 130.369 24.566ZM130.121 14.2276C129.81 14.229 129.506 14.3152 129.241 14.477C128.976 14.6387 128.76 14.8698 128.617 15.1452C128.217 15.8583 128.005 16.6617 128.001 17.4795H132.069V17.0316C132.098 16.3251 131.927 15.6249 131.578 15.0105C131.429 14.7593 131.215 14.5535 130.959 14.4155C130.702 14.2775 130.412 14.2125 130.121 14.2276Z" fill="#919195"/>
<path d="M141.978 14.621L140.966 14.5663C140.551 14.5497 140.145 14.6961 139.837 14.9742C139.514 15.2887 139.28 15.6833 139.159 16.1176V24.3403H136.993V12.7965H138.966L139.127 14.5372C139.323 13.9902 139.648 13.4983 140.073 13.1024C140.445 12.7648 140.93 12.5801 141.432 12.5853C141.578 12.5848 141.724 12.597 141.869 12.6217C141.993 12.6374 142.116 12.668 142.233 12.7128L141.978 14.621Z" fill="#919195"/>
<path d="M148.176 20.8737L148.358 21.7695H148.42L148.602 20.8737L150.565 12.7966H152.793L149.338 24.3404H147.429L143.952 12.7966H146.191L148.176 20.8737Z" fill="#919195"/>
<path d="M157.52 9.76666H155.354V7.69824H157.52V9.76666ZM157.52 24.333H155.354V12.7965H157.52V24.333Z" fill="#919195"/>
<path d="M165.029 22.942C165.289 22.946 165.547 22.8918 165.783 22.7834C166.019 22.675 166.228 22.5152 166.395 22.3157C166.783 21.8494 166.982 21.254 166.952 20.6478H168.893L168.915 20.7097C168.94 21.2201 168.856 21.73 168.668 22.205C168.479 22.6799 168.191 23.1089 167.822 23.4628C167.458 23.8269 167.023 24.1139 166.545 24.3066C166.067 24.4993 165.555 24.5938 165.04 24.5844C163.605 24.5844 162.506 24.0988 161.741 23.1278C160.937 22.0486 160.532 20.7246 160.594 19.3806V17.7892C160.54 16.4507 160.945 15.1341 161.741 14.0566C162.506 13.0855 163.598 12.6 165.018 12.6C165.55 12.576 166.08 12.6667 166.573 12.8659C167.067 13.0651 167.511 13.3681 167.877 13.7543C168.246 14.162 168.531 14.6393 168.713 15.1584C168.896 15.6774 168.973 16.2276 168.94 16.7768L168.908 16.8424H166.967C166.991 16.1702 166.8 15.5078 166.42 14.9524C166.265 14.7234 166.056 14.5367 165.81 14.4095C165.565 14.2823 165.291 14.2186 165.015 14.2241C164.656 14.1993 164.297 14.2816 163.985 14.4605C163.672 14.6394 163.42 14.9069 163.259 15.2292C162.888 16.0259 162.71 16.8996 162.742 17.7783V19.3733C162.712 20.2518 162.889 21.1251 163.259 21.9224C163.419 22.2498 163.672 22.522 163.988 22.7037C164.303 22.8855 164.666 22.9685 165.029 22.942Z" fill="#919195"/>
<path d="M175.888 24.5662C175.27 24.5875 174.655 24.47 174.087 24.2223C173.52 23.9747 173.016 23.6031 172.611 23.135C171.76 22.1102 171.319 20.8063 171.373 19.4752V17.7892C171.322 16.4406 171.752 15.1177 172.585 14.0566C172.95 13.5915 173.418 13.2178 173.952 12.9649C174.486 12.7121 175.072 12.5871 175.663 12.5999C176.236 12.5671 176.809 12.6711 177.333 12.9035C177.858 13.1359 178.321 13.49 178.682 13.9364C179.388 14.8322 179.74 16.0327 179.738 17.5379V19.031H173.547V19.4898C173.514 20.3609 173.742 21.2221 174.202 21.9624C174.397 22.2676 174.666 22.5178 174.985 22.6893C175.304 22.8608 175.661 22.9478 176.023 22.942C176.548 22.9559 177.071 22.8591 177.556 22.658C178.008 22.4622 178.422 22.1886 178.78 21.8495L179.464 23.1933C179.06 23.6341 178.562 23.9798 178.008 24.2056C177.334 24.4699 176.612 24.5926 175.888 24.5662ZM175.641 14.2277C175.33 14.2292 175.026 14.3154 174.761 14.4771C174.496 14.6389 174.28 14.8699 174.137 15.1454C173.733 15.8576 173.518 16.661 173.51 17.4796H177.574V17.0317C177.604 16.3256 177.435 15.6253 177.086 15.0107C176.938 14.7595 176.724 14.5537 176.468 14.4157C176.211 14.2776 175.921 14.2126 175.63 14.2277H175.641Z" fill="#919195"/>
<path d="M187.905 21.4489C187.91 21.2398 187.874 21.0318 187.798 20.8369C187.723 20.6419 187.609 20.4638 187.465 20.3127C186.966 19.8791 186.396 19.5364 185.779 19.3004C184.818 18.9679 183.924 18.4673 183.139 17.8219C182.856 17.566 182.633 17.2516 182.485 16.9007C182.336 16.5498 182.266 16.1707 182.279 15.7899C182.275 15.3573 182.368 14.9293 182.55 14.5369C182.732 14.1444 182.999 13.7975 183.332 13.5212C184.1 12.8754 185.082 12.5414 186.085 12.5853C186.601 12.5587 187.117 12.6341 187.604 12.8072C188.09 12.9803 188.538 13.2476 188.921 13.594C189.265 13.9126 189.534 14.3028 189.71 14.7371C189.885 15.1714 189.963 15.639 189.937 16.1067L189.916 16.1686H187.836C187.847 15.6581 187.683 15.1594 187.37 14.7557C187.219 14.5614 187.023 14.4061 186.799 14.3029C186.576 14.1996 186.331 14.1513 186.085 14.1621C185.854 14.148 185.623 14.1815 185.405 14.2604C185.188 14.3394 184.989 14.4621 184.821 14.6209C184.674 14.7621 184.558 14.932 184.48 15.1199C184.402 15.3078 184.363 15.5098 184.366 15.7134C184.357 15.9041 184.387 16.0947 184.455 16.2733C184.522 16.4518 184.626 16.6145 184.759 16.7513C185.272 17.1624 185.841 17.4984 186.449 17.7491C187.436 18.0584 188.352 18.5609 189.144 19.2275C189.432 19.4977 189.659 19.8261 189.81 20.1909C189.962 20.5557 190.033 20.9485 190.021 21.3433C190.032 21.7893 189.939 22.2317 189.749 22.6356C189.56 23.0394 189.279 23.3937 188.929 23.6703C188.115 24.2931 187.108 24.6102 186.085 24.5661C185.536 24.5954 184.986 24.5137 184.47 24.326C183.953 24.1383 183.479 23.8484 183.077 23.4736C182.728 23.15 182.454 22.7544 182.273 22.3142C182.093 21.874 182.01 21.3998 182.032 20.9245L182.053 20.859H184.071C184.045 21.1098 184.068 21.3634 184.14 21.6052C184.212 21.8469 184.331 22.0722 184.49 22.268C184.649 22.4638 184.845 22.6264 185.066 22.7464C185.288 22.8664 185.532 22.9415 185.782 22.9674C185.894 22.9766 186.006 22.9766 186.117 22.9674C186.584 23.0041 187.048 22.8651 187.417 22.5778C187.576 22.4366 187.702 22.2624 187.786 22.0674C187.871 21.8724 187.911 21.6613 187.905 21.4489Z" fill="#919195"/>
</svg>
