<svg width="25" height="24" viewBox="0 0 25 24" fill="none" xmlns="http://www.w3.org/2000/svg">
<path d="M6.285 0C4.61892 0.00264457 3.02184 0.665664 1.84375 1.84376C0.665657 3.02185 0.00264457 4.61893 0 6.285V17.715C0.00264457 19.3811 0.665657 20.9782 1.84375 22.1563C3.02184 23.3343 4.61892 23.9974 6.285 24H17.715C19.1797 23.9954 20.5959 23.475 21.715 22.53H21.79V22.49C22.4864 21.9072 23.0468 21.1792 23.4321 20.3569C23.8173 19.5346 24.018 18.638 24.02 17.73V6.285C24.0187 4.61853 23.3561 3.02068 22.1777 1.8423C20.9993 0.663917 19.4015 0.00132418 17.735 0H6.285ZM6.285 2H17.715C18.8514 2 19.9414 2.45146 20.7449 3.25505C21.5485 4.05864 22 5.14855 22 6.285V17.715C21.992 18.7011 21.6381 19.6531 21 20.405C20.1975 18.7226 18.944 17.2957 17.3789 16.2832C15.8138 15.2707 13.9986 14.7123 12.135 14.67C13.4392 14.6261 14.6739 14.0715 15.5731 13.1257C16.4722 12.18 16.9638 10.9188 16.9418 9.61406C16.9198 8.3093 16.3861 7.06541 15.4556 6.15048C14.5251 5.23554 13.2724 4.72282 11.9675 4.72282C10.6626 4.72282 9.40986 5.23554 8.47939 6.15048C7.54891 7.06541 7.01517 8.3093 6.9932 9.61406C6.97123 10.9188 7.46278 12.18 8.36192 13.1257C9.26106 14.0715 10.4958 14.6261 11.8 14.67C9.93614 14.6944 8.11657 15.2416 6.54842 16.2493C4.98028 17.257 3.72657 18.6848 2.93 20.37C2.31719 19.6204 1.98009 18.6832 1.975 17.715V6.285C1.97632 5.14809 2.42889 4.0582 3.23328 3.25475C4.03766 2.4513 5.12809 2 6.265 2H6.285ZM12 6.72C12.5933 6.72 13.1734 6.89595 13.6667 7.22559C14.1601 7.55524 14.5446 8.02378 14.7716 8.57195C14.9987 9.12013 15.0581 9.72333 14.9424 10.3053C14.8266 10.8872 14.5409 11.4218 14.1213 11.8413C13.7018 12.2609 13.1672 12.5466 12.5853 12.6624C12.0033 12.7781 11.4001 12.7187 10.852 12.4916C10.3038 12.2646 9.83524 11.8801 9.50559 11.3867C9.17595 10.8934 9 10.3133 9 9.72C9 8.92435 9.31607 8.16129 9.87868 7.59868C10.4413 7.03607 11.2044 6.72 12 6.72ZM12 16.655C13.594 16.6632 15.1501 17.1422 16.4729 18.0317C17.7957 18.9213 18.8262 20.1818 19.435 21.655C18.8979 21.8925 18.3172 22.0151 17.73 22.015H6.285C5.69241 22.0153 5.10639 21.8909 4.56499 21.65C5.16282 20.1721 6.18857 18.9066 7.51064 18.0157C8.8327 17.1248 10.3908 16.6492 11.985 16.65L12 16.655Z" fill="#80C242"/>
</svg>
