<svg width="21" height="21" viewBox="0 0 21 21" fill="none" xmlns="http://www.w3.org/2000/svg">
<path fill-rule="evenodd" clip-rule="evenodd" d="M16.329 1.76822C17.6685 2.6628 18.7843 3.85358 19.5899 5.24841C20.5193 6.8597 21.0058 8.68828 20.9999 10.5484C20.9915 12.2726 20.5587 13.9683 19.7396 15.4856C18.9205 17.0028 17.7403 18.295 16.3033 19.248C14.8664 20.201 13.2168 20.7855 11.5004 20.9498C9.78402 21.1141 8.05357 20.8531 6.46193 20.19C4.87028 19.5269 3.46643 18.482 2.37438 17.1477C1.28233 15.8133 0.535689 14.2306 0.200413 12.5392C-0.134864 10.8479 -0.0484539 9.09999 0.452 7.44996C0.952453 5.79993 1.85155 4.29855 3.06988 3.07841C4.20841 1.93896 5.59383 1.07672 7.11894 0.558424C8.64405 0.0401227 10.268 -0.120353 11.865 0.0894296C13.4621 0.299213 14.9895 0.873629 16.329 1.76822ZM10.4665 12.7301C9.6109 12.7344 8.7712 12.9613 8.02988 13.3884C7.30167 13.8174 6.69407 14.424 6.26387 15.1515C5.83367 15.8789 5.59491 16.7036 5.56988 17.5484C7.0113 18.5641 8.73152 19.1094 10.4949 19.1094C12.2582 19.1094 13.9785 18.5641 15.4199 17.5484C15.4005 16.6931 15.1589 15.8575 14.7187 15.1238C14.2786 14.3902 13.6551 13.7837 12.9095 13.364C12.164 12.9443 11.322 12.7258 10.4665 12.7301ZM10.4949 10.9989C11.5229 10.9989 12.5373 11.2348 13.4599 11.6884C14.3389 12.1078 15.1172 12.7117 15.7418 13.4588C16.3665 14.206 16.8229 15.079 17.0799 16.0184C18.1331 14.7646 18.8065 13.2362 19.0209 11.6129C19.2352 9.98951 18.9817 8.33869 18.2901 6.85447C17.5985 5.37026 16.4975 4.11433 15.1166 3.23434C13.7357 2.35436 12.1323 1.88688 10.4949 1.88688C8.85743 1.88688 7.25402 2.35436 5.87313 3.23434C4.49224 4.11433 3.39126 5.37026 2.69965 6.85447C2.00803 8.33869 1.75452 9.98951 1.96891 11.6129C2.18329 13.2362 2.85667 14.7646 3.90988 16.0184C4.16869 15.0799 4.62574 14.2077 5.2502 13.4608C5.87467 12.7138 6.65203 12.1094 7.52988 11.6884C8.45246 11.2348 9.46681 10.9989 10.4949 10.9989ZM7.76922 4.07777C8.49873 3.34826 9.48817 2.93842 10.5199 2.93842C11.1597 2.9382 11.7897 3.09581 12.354 3.39726C12.9183 3.69872 13.3996 4.13471 13.7552 4.66663C14.1107 5.19854 14.3296 5.80995 14.3924 6.44667C14.4552 7.08339 14.3599 7.72576 14.1151 8.31688C13.8703 8.908 13.4835 9.4296 12.9889 9.83548C12.4943 10.2414 11.9072 10.519 11.2797 10.6437C10.6522 10.7685 10.0036 10.7366 9.39134 10.5507C8.77911 10.3649 8.22217 10.0309 7.76986 9.57841C7.40591 9.21933 7.11754 8.79101 6.92175 8.31871C6.72596 7.84641 6.62671 7.33968 6.62986 6.82841C6.62986 5.79672 7.0397 4.80729 7.76922 4.07777ZM11.9299 8.23842C12.3055 7.86507 12.5176 7.35799 12.5199 6.82841L12.5299 6.83841C12.5299 6.30798 12.3192 5.79928 11.9441 5.42421C11.569 5.04914 11.0603 4.83841 10.5299 4.83841C10.0017 4.83799 9.49484 5.04649 9.11986 5.41841C8.74736 5.79314 8.53828 6.30004 8.53828 6.82841C8.53828 7.35679 8.74736 7.86369 9.11986 8.23842C9.49416 8.60789 9.99893 8.81505 10.5249 8.81505C11.0508 8.81505 11.5556 8.60789 11.9299 8.23842Z" fill="#CDCDCD"/>
</svg>
