<svg width="17" height="21" viewBox="0 0 17 21" fill="none" xmlns="http://www.w3.org/2000/svg">
<path fill-rule="evenodd" clip-rule="evenodd" d="M2.98375 0H13.1863C13.9776 0 14.7365 0.314357 15.2961 0.873919C15.8556 1.43348 16.17 2.19241 16.17 2.98375V18.0163C16.17 18.8076 15.8556 19.5665 15.2961 20.1261C14.7365 20.6856 13.9776 21 13.1863 21H2.98375C2.19241 21 1.43348 20.6856 0.873922 20.1261C0.31436 19.5665 0 18.8076 0 18.0163V2.98375C0 2.19241 0.31436 1.43348 0.873922 0.873919C1.43348 0.314357 2.19241 0 2.98375 0ZM14.1487 18.9788C14.4003 18.7214 14.5415 18.3761 14.5425 18.0163V2.98375C14.5415 2.6239 14.4003 2.27862 14.1487 2.02126C13.8924 1.76815 13.5465 1.62661 13.1863 1.6275H2.98375C2.8067 1.62726 2.63134 1.66192 2.46769 1.72948C2.30404 1.79704 2.15531 1.89619 2.03 2.02126C1.77607 2.27774 1.63174 2.62286 1.6275 2.98375V18.0163C1.63174 18.3772 1.77607 18.7223 2.03 18.9788C2.15531 19.1038 2.30404 19.203 2.46769 19.2705C2.63134 19.3381 2.8067 19.3727 2.98375 19.3725H13.1863C13.5465 19.3734 13.8924 19.2319 14.1487 18.9788ZM11.5325 7.07876H8.35624C8.24807 7.08368 8.14007 7.06598 8.03913 7.02681C7.93819 6.98764 7.84652 6.92784 7.76999 6.85125C7.69508 6.77351 7.63638 6.68164 7.59732 6.58099C7.55827 6.48034 7.53962 6.37293 7.54249 6.265C7.54476 6.04989 7.63123 5.84424 7.78335 5.69212C7.93547 5.54 8.14112 5.45354 8.35624 5.45126H11.5325C11.6929 5.45507 11.8489 5.50525 11.9814 5.59574C12.114 5.68623 12.2175 5.81316 12.2795 5.9612C12.3415 6.10925 12.3593 6.27206 12.3308 6.43C12.3022 6.58794 12.2286 6.73425 12.1187 6.85125C12.0422 6.92784 11.9505 6.98764 11.8496 7.02681C11.7487 7.06598 11.6407 7.08368 11.5325 7.07876ZM11.8563 9.835H4.31375C4.09864 9.83727 3.89298 9.92374 3.74086 10.0759C3.58874 10.228 3.50228 10.4336 3.5 10.6487C3.49614 10.7568 3.51431 10.8645 3.55343 10.9653C3.59254 11.0661 3.65177 11.1578 3.7275 11.235C3.80404 11.3116 3.8957 11.3714 3.99664 11.4105C4.09758 11.4497 4.20559 11.4674 4.31375 11.4625H11.8563C11.9644 11.4674 12.0724 11.4497 12.1734 11.4105C12.2743 11.3714 12.366 11.3116 12.4425 11.235C12.52 11.1591 12.5804 11.0676 12.6196 10.9665C12.6589 10.8654 12.676 10.757 12.67 10.6487C12.6688 10.4355 12.584 10.2313 12.4338 10.08C12.3591 10.0022 12.2694 9.94034 12.1701 9.89823C12.0709 9.85611 11.9641 9.8346 11.8563 9.835ZM4.31375 13.8337H9.8525C10.0636 13.8481 10.2624 13.9384 10.412 14.088C10.5616 14.2376 10.6519 14.4364 10.6663 14.6475C10.6674 14.7547 10.6472 14.861 10.6067 14.9603C10.5662 15.0595 10.5063 15.1497 10.4305 15.2255C10.3547 15.3013 10.2646 15.3612 10.1653 15.4017C10.066 15.4422 9.95969 15.4624 9.8525 15.4612H4.31375C4.20559 15.4662 4.09758 15.4485 3.99664 15.4093C3.8957 15.3701 3.80404 15.3103 3.7275 15.2337C3.65177 15.1566 3.59254 15.0648 3.55343 14.964C3.51431 14.8632 3.49614 14.7555 3.5 14.6475C3.50228 14.4324 3.58874 14.2267 3.74086 14.0746C3.89298 13.9225 4.09864 13.836 4.31375 13.8337Z" fill="#80C242"/>
</svg>
