<svg width="16" height="24" viewBox="0 0 16 24" fill="none" xmlns="http://www.w3.org/2000/svg">
<path fill-rule="evenodd" clip-rule="evenodd" d="M15.112 5.1154C15.1588 5.2308 15.1804 5.3549 15.1753 5.47933L15.185 16.0778C15.185 16.8725 14.8693 17.6346 14.3074 18.1965C13.7455 18.7584 12.9834 19.0741 12.1887 19.0741H11.0251V23.1079C11.024 23.2793 10.973 23.4468 10.8783 23.5897C10.7836 23.7326 10.6493 23.8449 10.4918 23.9127L10.1718 24C9.95673 24.0016 9.74893 23.922 9.59004 23.777L7.59253 22.0413L5.65319 23.777C5.5218 23.8906 5.36038 23.9638 5.18836 23.9879C5.01635 24.012 4.84106 23.9859 4.68352 23.9127C4.52786 23.8434 4.39556 23.7306 4.30265 23.5877C4.20973 23.4449 4.16016 23.2783 4.1599 23.1079V19.0741H2.99628C2.20208 19.0694 1.44072 18.7565 0.87271 18.2014C0.594781 17.9222 0.374663 17.5909 0.224914 17.2265C0.0751654 16.8621 -0.00126862 16.4718 1.59258e-05 16.0778V2.99699C-0.00126862 2.60303 0.0751654 2.21269 0.224914 1.8483C0.374663 1.48391 0.594781 1.15263 0.87271 0.873416C1.44072 0.318297 2.20208 0.0054083 2.99628 0.000714363H9.44459C9.66968 -0.00849706 9.88925 0.0716764 10.0555 0.223741L14.9038 4.81026C14.9942 4.89595 15.0652 5 15.112 5.1154ZM10.327 2.9485V4.15089H10.3076C10.3077 4.2115 10.3207 4.27138 10.3458 4.32656C10.3709 4.38174 10.4074 4.43093 10.453 4.47088C10.4929 4.50925 10.54 4.53931 10.5916 4.55929C10.6432 4.57926 10.6983 4.58877 10.7536 4.58724H12.0724L10.327 2.9485ZM5.51955 15.1216C5.60145 15.5317 5.80319 15.9084 6.09923 16.2038H6.07985C6.48422 16.5914 7.02269 16.8078 7.58282 16.8078C8.14295 16.8078 8.68142 16.5914 9.08579 16.2038C9.38183 15.9084 9.58357 15.5317 9.66547 15.1216C9.74736 14.7114 9.70573 14.2862 9.54586 13.8997C9.38598 13.5132 9.11507 13.1828 8.76735 12.9503C8.41964 12.7179 8.01078 12.5938 7.59253 12.5938C7.17427 12.5938 6.76541 12.7179 6.4177 12.9503C6.06998 13.1828 5.79904 13.5132 5.63916 13.8997C5.47929 14.2862 5.43766 14.7114 5.51955 15.1216ZM11.4827 14.5722C11.509 15.2351 11.3648 15.8937 11.0639 16.4851L11.0833 17.2802H12.2178C12.3783 17.281 12.5374 17.2497 12.6856 17.1881C12.8338 17.1265 12.9682 17.0358 13.0808 16.9214C13.3056 16.6905 13.431 16.3807 13.4299 16.0584V6.36173H10.7536C10.1681 6.35918 9.60721 6.12543 9.19315 5.71137C8.77909 5.29731 8.54533 4.73645 8.54278 4.15089V1.78491H2.98661C2.82662 1.78363 2.66794 1.81403 2.51977 1.87437C2.37159 1.93471 2.23682 2.02378 2.12323 2.13646C2.00965 2.24914 1.91952 2.3832 1.858 2.53089C1.79648 2.67859 1.76481 2.837 1.76482 2.99699V16.1069C1.76481 16.2669 1.79648 16.4253 1.858 16.573C1.91952 16.7207 2.00965 16.8547 2.12323 16.9674C2.23682 17.0801 2.37159 17.1692 2.51977 17.2295C2.66794 17.2898 2.82662 17.3202 2.98661 17.319H4.15019V16.4851C3.8493 15.8937 3.70512 15.2351 3.73144 14.5722C3.75775 13.9093 3.95368 13.2641 4.30049 12.6985C4.6473 12.1329 5.1334 11.6658 5.71232 11.3417C6.29123 11.0175 6.94359 10.8474 7.60706 10.8474C8.27052 10.8474 8.92288 11.0175 9.50179 11.3417C10.0807 11.6658 10.5668 12.1329 10.9136 12.6985C11.2604 13.2641 11.4564 13.9093 11.4827 14.5722ZM7.58282 18.5732C7.00213 18.5732 6.42885 18.4428 5.90528 18.1917V21.1007L7.01072 20.131C7.17427 19.9954 7.38006 19.9212 7.59253 19.9212C7.80499 19.9212 8.01075 19.9954 8.1743 20.131L9.26035 21.1007V18.1917C8.73679 18.4428 8.1635 18.5732 7.58282 18.5732ZM5.96348 7.63199H9.18278C9.41938 7.63199 9.64629 7.72597 9.81359 7.89327C9.98089 8.06057 10.0749 8.28748 10.0749 8.52408C10.0749 8.76068 9.98089 8.98758 9.81359 9.15488C9.64629 9.32218 9.41938 9.41617 9.18278 9.41617H5.96348C5.72688 9.41617 5.5 9.32218 5.3327 9.15488C5.1654 8.98758 5.0714 8.76068 5.0714 8.52408C5.0714 8.28748 5.1654 8.06057 5.3327 7.89327C5.5 7.72597 5.72688 7.63199 5.96348 7.63199Z" fill="#CDCDCD"/>
</svg>
