<svg width="18" height="18" viewBox="0 0 18 18" fill="none" xmlns="http://www.w3.org/2000/svg">
<path fill-rule="evenodd" clip-rule="evenodd" d="M14.6154 0C15.497 0.000292567 16.3425 0.350773 16.9658 0.974357V1.01709C17.5895 1.64203 17.9398 2.48887 17.9398 3.37178C17.9398 4.2547 17.5895 5.10156 16.9658 5.72649L10.9829 11.7094C10.4731 12.2211 9.86694 12.6265 9.19941 12.9024C8.53188 13.1782 7.81627 13.3188 7.09401 13.3162H4.66666V10.8974C4.66611 10.1747 4.80854 9.45901 5.08578 8.79158C5.36303 8.12415 5.76959 7.51816 6.28205 7.00854L12.2649 0.974357C12.8882 0.350773 13.7337 0.000292567 14.6154 0ZM9.76067 10.4359L15.7436 4.45299V4.48717C15.9516 4.28551 16.1006 4.03083 16.1744 3.75064C16.2482 3.47046 16.2441 3.17542 16.1624 2.89743C16.0911 2.63327 15.9517 2.39243 15.7583 2.19896C15.5648 2.00549 15.324 1.86616 15.0598 1.79487C14.7974 1.72043 14.5201 1.71515 14.255 1.77955C13.9899 1.84395 13.746 1.97583 13.547 2.16239L7.5128 8.19657C6.8082 8.90192 6.41176 9.8577 6.41025 10.8547V11.5384H7.10255C7.59658 11.54 8.08601 11.4434 8.54234 11.2541C8.99867 11.0648 9.41281 10.7867 9.76067 10.4359ZM15.3101 10.4213C15.4704 10.261 15.6878 10.1709 15.9145 10.1709C16.0311 10.1674 16.1471 10.1877 16.2556 10.2307C16.364 10.2737 16.4624 10.3384 16.5449 10.4209C16.6274 10.5033 16.6921 10.6018 16.7351 10.7102C16.7781 10.8187 16.7984 10.9347 16.7948 11.0513V14.8205C16.7948 15.2388 16.7123 15.6529 16.552 16.0392C16.3917 16.4255 16.1567 16.7764 15.8606 17.0718C15.5644 17.3671 15.2129 17.6011 14.8262 17.7604C14.4394 17.9197 14.0251 18.0011 13.6068 18H3.18803C2.76977 18.0011 2.35541 17.9197 1.96867 17.7604C1.58193 17.6011 1.23042 17.3671 0.934267 17.0718C0.638119 16.7764 0.403154 16.4255 0.242836 16.0392C0.082518 15.6529 0 15.2388 0 14.8205V4.39317C0.00676474 3.55437 0.344729 2.75223 0.940266 2.16149C1.5358 1.57076 2.34066 1.2393 3.17948 1.23933H6.94016C7.16684 1.23933 7.38423 1.32937 7.54452 1.48966C7.70481 1.64995 7.79486 1.86735 7.79486 2.09403C7.79486 2.32071 7.70481 2.5381 7.54452 2.69839C7.38423 2.85868 7.16684 2.94873 6.94016 2.94873H3.17948C2.79449 2.94967 2.42561 3.10337 2.15385 3.37608C2.01831 3.50848 1.91066 3.6667 1.83726 3.84139C1.76386 4.01608 1.7262 4.20369 1.7265 4.39317V14.7949C1.7262 14.9843 1.76386 15.172 1.83726 15.3466C1.91066 15.5213 2.01831 15.6796 2.15385 15.812C2.42561 16.0847 2.79449 16.2384 3.17948 16.2393H13.6154C14.0004 16.2384 14.3692 16.0847 14.641 15.812C14.7754 15.6791 14.8817 15.5207 14.9537 15.3459C15.0256 15.1712 15.0617 14.9838 15.0598 14.7949V11.0256C15.0598 10.799 15.1499 10.5816 15.3101 10.4213Z" fill="#80C242"/>
</svg>
