<svg width="24" height="24" viewBox="0 0 24 24" fill="none" xmlns="http://www.w3.org/2000/svg">
<path fill-rule="evenodd" clip-rule="evenodd" d="M13.1979 0.0599647C15.9599 0.337081 18.5404 1.56319 20.4999 3.52943C21.6166 4.64421 22.501 5.96954 23.1018 7.42861C23.7026 8.88769 24.0078 10.4515 23.9998 12.0294C23.993 14.8053 23.0241 17.4929 21.258 19.6345C19.492 21.7762 17.038 23.2393 14.3143 23.7746C11.5905 24.31 8.76538 23.8845 6.32014 22.5706C3.87489 21.2567 1.96077 19.1357 0.903857 16.5689C-0.153059 14.0022 -0.287395 11.1483 0.523716 8.49359C1.33483 5.83886 3.04121 3.54743 5.35222 2.00965C7.66322 0.471867 10.4359 -0.217152 13.1979 0.0599647ZM15.8452 21.2792C17.0579 20.7771 18.159 20.0396 19.0849 19.1094C20.4844 17.7114 21.4378 15.9298 21.8247 13.9899C22.2115 12.05 22.0143 10.0389 21.258 8.21113C20.5017 6.38332 19.2203 4.82086 17.5759 3.7214C15.9315 2.62194 13.998 2.03487 12.0199 2.03444H11.7849C10.4717 2.04987 9.17439 2.32381 7.96704 2.84061C6.7597 3.35741 5.66596 4.10695 4.74829 5.04645C3.83062 5.98594 3.10698 7.09697 2.61869 8.31613C2.1304 9.53528 1.88702 10.8387 1.90245 12.1519C1.91788 13.4651 2.19183 14.7624 2.70863 15.9698C3.22543 17.1771 3.97497 18.2708 4.91446 19.1885C5.85395 20.1062 6.96499 20.8298 8.18414 21.3181C9.4033 21.8064 10.7067 22.0498 12.0199 22.0344C13.3324 22.0379 14.6326 21.7812 15.8452 21.2792ZM15.235 11.4194C15.6578 10.8008 15.9039 10.0787 15.9469 9.3307C15.9899 8.58269 15.8281 7.83712 15.4789 7.17423C15.1297 6.51133 14.6063 5.95622 13.9652 5.5686C13.324 5.18098 12.5892 4.97555 11.84 4.9744C11.0702 4.97457 10.3162 5.1925 9.665 5.60302C9.01383 6.01355 8.49207 6.59992 8.16001 7.29439C8.03819 7.54774 8.02201 7.83911 8.11501 8.10439C8.18318 8.30499 8.30963 8.4807 8.4782 8.60904C8.64676 8.73739 8.84979 8.81255 9.06129 8.82489C9.2728 8.83724 9.4832 8.78622 9.66555 8.67836C9.84791 8.5705 9.99395 8.4107 10.085 8.21939C10.2414 7.88264 10.4913 7.59799 10.805 7.39939C11.1171 7.19958 11.4794 7.09212 11.85 7.0894C12.3043 7.11292 12.7371 7.29063 13.0768 7.59321C13.4165 7.89579 13.6429 8.30517 13.7187 8.75377C13.7944 9.20236 13.7149 9.66337 13.4934 10.0607C13.2718 10.4581 12.9214 10.768 12.5 10.9394C12.0092 11.0964 11.5816 11.4065 11.28 11.8244C10.9748 12.239 10.8085 12.7395 10.805 13.2544V14.2544C10.795 14.4 10.8151 14.5462 10.8639 14.6838C10.9128 14.8213 10.9894 14.9474 11.0891 15.0541C11.1887 15.1608 11.3092 15.2459 11.4431 15.3041C11.577 15.3623 11.7215 15.3923 11.8675 15.3923C12.0135 15.3923 12.1579 15.3623 12.2918 15.3041C12.4257 15.2459 12.5463 15.1608 12.6459 15.0541C12.7456 14.9474 12.8222 14.8213 12.8711 14.6838C12.9199 14.5462 12.94 14.4 12.93 14.2544V13.2544C12.9356 13.1845 12.9634 13.1182 13.0093 13.0652C13.0551 13.0121 13.1166 12.9751 13.185 12.9594C14.0149 12.6775 14.7331 12.1379 15.235 11.4194ZM12.62 18.7444C12.7186 18.6459 12.7968 18.529 12.8501 18.4003C12.9035 18.2716 12.9309 18.1337 12.9309 17.9944C12.9309 17.855 12.9035 17.7171 12.8501 17.5884C12.7968 17.4597 12.7186 17.3428 12.62 17.2444C12.5216 17.1458 12.4047 17.0676 12.276 17.0142C12.1473 16.9609 12.0093 16.9334 11.87 16.9334C11.7307 16.9334 11.5928 16.9609 11.4641 17.0142C11.3354 17.0676 11.2185 17.1458 11.12 17.2444C10.9196 17.4447 10.8064 17.716 10.805 17.9993C10.8041 18.1399 10.8315 18.2792 10.8856 18.409C10.9397 18.5387 11.0194 18.6562 11.12 18.7543C11.3238 18.945 11.5929 19.0503 11.872 19.0484C12.1511 19.0466 12.4188 18.9377 12.62 18.7444Z" fill="#CDCDCD"/>
</svg>
