<svg width="28" height="22" viewBox="0 0 28 22" fill="none" xmlns="http://www.w3.org/2000/svg">
<path d="M27.1965 10.1938L24.245 7.8799V1.56687C24.2426 1.30184 24.1363 1.04834 23.9488 0.86093C23.7614 0.673518 23.5079 0.567182 23.2429 0.564804H18.8702C18.6248 0.592552 18.3979 0.70921 18.2326 0.892755C18.0698 1.0798 17.9793 1.31892 17.9775 1.56687V2.96066L14.4338 0.227743C14.2573 0.0807845 14.0349 0.000215716 13.8052 0V0C13.5929 0.010347 13.389 0.0867834 13.2222 0.218631L0.46863 10.2393C0.349825 10.314 0.248039 10.4129 0.169863 10.5294C0.0916873 10.646 0.0388657 10.7776 0.0148193 10.9159C-0.00922717 11.0542 -0.00396306 11.1959 0.030273 11.332C0.064509 11.4682 0.126953 11.5955 0.213559 11.706C0.3002 11.8186 0.410206 11.9111 0.536011 11.9772C0.661817 12.0432 0.800437 12.0812 0.942335 12.0886C1.08122 12.0982 1.22057 12.078 1.35099 12.0293C1.48141 11.9806 1.59989 11.9045 1.69844 11.8062L13.8144 2.22277L22.2226 8.85464V20.014H18.2417V16.7436C18.2417 15.5695 17.7752 14.4433 16.9449 13.6131C16.1147 12.7828 14.9886 12.3163 13.8144 12.3163C12.6402 12.3163 11.5141 12.7828 10.6838 13.6131C9.85348 14.4433 9.38703 15.5695 9.38703 16.7436V20.014H5.40609V12.4985C5.40563 12.23 5.30115 11.972 5.11458 11.7789C4.92532 11.5919 4.67003 11.4871 4.40402 11.4871C4.13802 11.4871 3.88273 11.5919 3.69347 11.7789C3.5986 11.8728 3.52383 11.985 3.47371 12.1087C3.4236 12.2324 3.39918 12.3651 3.40196 12.4985V20.9979C3.40042 21.1298 3.42543 21.2607 3.47551 21.3828C3.52559 21.5049 3.59971 21.6156 3.69347 21.7084C3.78692 21.8014 3.89778 21.8749 4.01971 21.925C4.14164 21.975 4.27223 22.0005 4.40402 21.9999H10.3891C10.5209 22.0005 10.6515 21.975 10.7734 21.925C10.8953 21.8749 11.0062 21.8014 11.0997 21.7084C11.2857 21.5186 11.3903 21.2637 11.3912 20.9979V16.7254C11.3912 16.0828 11.6465 15.4664 12.1009 15.012C12.5553 14.5575 13.1717 14.3022 13.8144 14.3022C14.457 14.3022 15.0734 14.5575 15.5278 15.012C15.9822 15.4664 16.2375 16.0828 16.2375 16.7254V20.9979C16.2384 21.2637 16.343 21.5186 16.529 21.7084C16.6225 21.8014 16.7334 21.8749 16.8553 21.925C16.9772 21.975 17.1078 22.0005 17.2396 21.9999H23.2338C23.3643 22.0013 23.4938 21.9762 23.6144 21.9261C23.7349 21.876 23.8441 21.8019 23.9352 21.7084C24.0302 21.616 24.1058 21.5056 24.1574 21.3836C24.209 21.2615 24.2357 21.1304 24.2359 20.9979V10.4124L25.9485 11.7606C26.0488 11.8592 26.1688 11.9354 26.3008 11.984C26.4327 12.0327 26.5734 12.0528 26.7137 12.043C26.854 12.0344 26.9909 11.9958 27.115 11.9298C27.2392 11.8638 27.3477 11.7719 27.4334 11.6604C27.5262 11.5531 27.5927 11.4255 27.6275 11.2879C27.6623 11.1503 27.6644 11.0065 27.6338 10.8679C27.613 10.7309 27.5632 10.5999 27.4878 10.4837C27.4124 10.3674 27.3131 10.2686 27.1965 10.1938V10.1938ZM19.9907 4.53664V2.56894H22.2317V6.30392L19.9907 4.53664Z" fill="#CDCDCD"/>
</svg>
