<svg width="24" height="24" viewBox="0 0 24 24" fill="none" xmlns="http://www.w3.org/2000/svg">
<path fill-rule="evenodd" clip-rule="evenodd" d="M19.4808 2.57385C17.6101 1.10365 15.3458 0.220609 12.9737 0.0362197C10.6016 -0.14817 8.22805 0.37435 6.15267 1.53782C4.07729 2.70129 2.39314 4.45355 1.31281 6.57339C0.232474 8.69324 -0.195609 11.0856 0.0826151 13.4486C0.110794 13.6582 0.213365 13.8506 0.371626 13.9909C0.529887 14.1312 0.733298 14.2099 0.94476 14.2127H1.05253C1.1676 14.1986 1.27875 14.1619 1.37961 14.1047C1.48048 14.0476 1.56907 13.9711 1.64034 13.8796C1.71141 13.7891 1.76364 13.6852 1.79393 13.5742C1.82422 13.4631 1.83196 13.3471 1.8167 13.233C1.57639 11.2132 1.94089 9.1674 2.86404 7.35482C3.7872 5.54225 5.22748 4.04439 7.00249 3.05092C8.77751 2.05746 10.8074 1.61308 12.8352 1.77406C14.8629 1.93504 16.7973 2.69414 18.3933 3.95523C19.4564 4.78635 20.3435 5.82075 21.0029 6.99816C21.6622 8.17556 22.0806 9.47242 22.2337 10.8132C22.261 11.0457 22.3796 11.2579 22.5633 11.403C22.747 11.5482 22.9809 11.6144 23.2134 11.5871C23.446 11.5598 23.6582 11.4413 23.8033 11.2576C23.9485 11.0738 24.0147 10.84 23.9874 10.6074C23.8034 9.03726 23.3104 7.51904 22.5369 6.14026C21.7635 4.76148 20.7248 3.5494 19.4808 2.57385ZM12.8971 11.9202C12.8836 11.8051 12.8476 11.6937 12.791 11.5925C12.7345 11.4913 12.6586 11.4022 12.5676 11.3303C12.4766 11.2585 12.3724 11.2052 12.2608 11.1736C12.1493 11.1421 12.0326 11.1328 11.9174 11.1463C11.8023 11.1598 11.6909 11.1958 11.5897 11.2524C11.4885 11.3089 11.3994 11.3848 11.3275 11.4758C11.2557 11.5668 11.2024 11.671 11.1708 11.7826C11.1393 11.8941 11.13 12.0108 11.1435 12.126C11.5775 15.7297 10.9438 19.3815 9.32122 22.6284C9.27138 22.7319 9.24249 22.8443 9.2362 22.959C9.22992 23.0737 9.24637 23.1885 9.28461 23.2969C9.32285 23.4052 9.38211 23.5049 9.459 23.5903C9.5359 23.6756 9.62892 23.7449 9.73269 23.7942C9.84929 23.8598 9.98104 23.8936 10.1148 23.8922C10.2784 23.8934 10.439 23.8479 10.5778 23.7612C10.7166 23.6744 10.8279 23.55 10.8985 23.4024C12.6772 19.8541 13.3723 15.8608 12.8971 11.9202ZM19.1962 6.30539C19.2954 6.36334 19.3821 6.44031 19.4514 6.53188C20.3938 7.80222 20.9942 9.29326 21.1953 10.8622C21.5584 13.8891 21.4394 16.9544 20.8426 19.944C20.8034 20.1454 20.6945 20.3265 20.5351 20.4555C20.3756 20.5845 20.1757 20.6532 19.9706 20.6494H19.8041C19.5894 20.6001 19.4009 20.4722 19.2758 20.2908C19.1507 20.1095 19.098 19.8879 19.1281 19.6697C19.6892 16.8674 19.8016 13.9937 19.4612 11.1561C19.314 9.86368 18.8272 8.63328 18.0504 7.58996C17.9142 7.40369 17.8545 7.17227 17.8839 6.94336C17.9184 6.71333 18.0414 6.50589 18.2268 6.36533C18.318 6.2956 18.4221 6.24459 18.5331 6.21522C18.6442 6.18584 18.7599 6.17868 18.8737 6.19416C18.9875 6.20964 19.0971 6.24743 19.1962 6.30539ZM4.58928 12.9098C4.42699 11.5533 4.63904 10.1783 5.20245 8.93374C5.76585 7.6892 6.65913 6.62258 7.78547 5.84948C8.91181 5.07639 10.2283 4.6263 11.5922 4.54798C12.956 4.46967 14.3154 4.76613 15.5228 5.40523C15.7281 5.51436 15.9683 5.53747 16.1906 5.46949C16.4129 5.40151 16.5991 5.248 16.7082 5.04273C16.8173 4.83746 16.8405 4.59725 16.7725 4.37493C16.7045 4.15262 16.551 3.96642 16.3457 3.85729C14.8553 3.06481 13.1763 2.6958 11.4909 2.79034C9.80559 2.88488 8.17835 3.43935 6.78593 4.39355C5.39351 5.34775 4.28912 6.6652 3.5927 8.20284C2.89627 9.74047 2.63443 11.4395 2.8356 13.1155C3.04181 14.8443 2.80585 16.5972 2.14981 18.21C2.10692 18.3167 2.08559 18.4309 2.08702 18.5459C2.08846 18.6609 2.11263 18.7745 2.15816 18.8802C2.2037 18.9858 2.26969 19.0814 2.35232 19.1614C2.43496 19.2414 2.53261 19.3043 2.63966 19.3464C2.74434 19.3934 2.85804 19.4168 2.97276 19.415C3.08738 19.4159 3.20091 19.3925 3.30587 19.3464C3.41299 19.3029 3.51001 19.2379 3.59092 19.1553C3.67182 19.0727 3.73487 18.9744 3.77612 18.8664C4.54731 16.9817 4.82711 14.9321 4.58928 12.9098ZM15.2297 10.2243C15.4636 10.6484 15.6099 11.1152 15.66 11.5969C16.1444 15.636 15.5564 19.7313 13.9553 23.471C13.888 23.6282 13.776 23.7622 13.6331 23.8563C13.4903 23.9503 13.3229 24.0003 13.1519 24C13.0333 23.9986 12.9164 23.9719 12.809 23.9216C12.7028 23.8767 12.6065 23.8111 12.5258 23.7287C12.445 23.6463 12.3815 23.5487 12.3388 23.4416C12.2927 23.3348 12.2689 23.2198 12.2689 23.1036C12.2689 22.9873 12.2927 22.8723 12.3388 22.7656C13.8187 19.3133 14.366 15.5329 13.9259 11.8027C13.8684 11.4331 13.7064 11.0877 13.459 10.8072C13.2115 10.5268 12.889 10.323 12.5294 10.22C12.1699 10.117 11.7884 10.119 11.4299 10.2259C11.0715 10.3327 10.7511 10.5399 10.5067 10.823C10.3518 11.0225 10.2383 11.2509 10.1726 11.4948C10.107 11.7387 10.0907 11.9933 10.1246 12.2435C10.2322 13.1275 10.2715 14.0184 10.2422 14.9083C10.2383 15.0235 10.2112 15.1368 10.1624 15.2412C10.1135 15.3456 10.044 15.439 9.95807 15.5158C9.87452 15.5948 9.77601 15.6563 9.66832 15.6967C9.56064 15.7371 9.44597 15.7555 9.33106 15.7509C9.21608 15.7513 9.10235 15.727 8.99756 15.6797C8.89277 15.6324 8.79936 15.5631 8.72365 15.4766C8.64269 15.3944 8.57992 15.2961 8.53941 15.1881C8.49891 15.08 8.48157 14.9647 8.48851 14.8496C8.51152 14.0512 8.4755 13.2522 8.38074 12.4591C8.26168 11.4887 8.52912 10.5104 9.12531 9.73551C9.42356 9.35388 9.79452 9.03517 10.2167 8.79781C10.6389 8.56045 11.104 8.40915 11.585 8.35267C12.0661 8.29618 12.5535 8.33563 13.0192 8.46873C13.4849 8.60182 13.9196 8.82593 14.2982 9.12809C14.679 9.42739 14.9957 9.80017 15.2297 10.2243ZM9.04694 17.7299C8.82194 17.6702 8.58245 17.7019 8.38073 17.8181C8.17936 17.9381 8.03199 18.131 7.96925 18.3569C7.66235 19.5454 7.21507 20.6932 6.63686 21.7761C6.52957 21.9801 6.50748 22.2184 6.57542 22.4387C6.64335 22.659 6.79576 22.8435 6.99934 22.9517C7.1258 23.0203 7.26697 23.0573 7.41082 23.0595C7.56951 23.0604 7.72547 23.018 7.86186 22.9369C7.99825 22.8558 8.1099 22.7389 8.18479 22.599C8.82267 21.392 9.32223 20.1169 9.67395 18.7978C9.7034 18.6865 9.71052 18.5704 9.6949 18.4564C9.67928 18.3423 9.64123 18.2325 9.58294 18.1332C9.52464 18.0339 9.44726 17.9472 9.35526 17.8779C9.26326 17.8087 9.15848 17.7584 9.04694 17.7299ZM16.9878 12.0286C16.8277 11.8937 16.7215 11.7057 16.6886 11.499V11.3814C16.594 10.6972 16.3503 10.0422 15.9745 9.46265C15.5987 8.88313 15.1002 8.3933 14.5141 8.02783C13.928 7.66236 13.2688 7.43018 12.5831 7.34773C11.8973 7.26529 11.2018 7.3346 10.5458 7.55074C10.4337 7.59969 10.3127 7.62478 10.1903 7.6244C10.068 7.62402 9.94708 7.59819 9.83527 7.54855C9.72346 7.49891 9.62319 7.42655 9.54086 7.33607C9.45854 7.24558 9.39594 7.13896 9.35705 7.02297C9.31816 6.90699 9.30384 6.78417 9.31498 6.66235C9.32613 6.54052 9.36249 6.42236 9.42178 6.31535C9.48107 6.20834 9.56197 6.11484 9.65935 6.04079C9.75673 5.96675 9.86845 5.91378 9.98741 5.88525C10.8967 5.58535 11.8613 5.49115 12.8114 5.60943C13.7616 5.72772 14.6736 6.05554 15.4817 6.56923C16.2897 7.08292 16.9735 7.76964 17.4838 8.57982C17.9941 9.38999 18.3182 10.3034 18.4325 11.254C18.4476 11.3679 18.44 11.4837 18.4103 11.5947C18.3805 11.7057 18.3291 11.8097 18.259 11.9007C18.1889 11.9918 18.1015 12.0681 18.0018 12.1252C17.9021 12.1824 17.7921 12.2192 17.6781 12.2337H17.5605C17.3512 12.2363 17.1479 12.1635 16.9878 12.0286ZM17.7369 14.2324C17.5051 14.2252 17.2798 14.3097 17.1099 14.4675C16.9436 14.6311 16.8455 14.8516 16.8356 15.0847C16.7626 17.418 16.3501 19.7283 15.6109 21.9426C15.5463 22.1666 15.5637 22.4063 15.6599 22.6186C15.7135 22.7214 15.787 22.8124 15.8761 22.8864C15.9653 22.9604 16.0683 23.0159 16.1792 23.0497C16.2635 23.0632 16.3495 23.0632 16.4339 23.0497C16.619 23.0499 16.7995 22.9924 16.9505 22.8853C17.1015 22.7782 17.2154 22.6268 17.2764 22.4521C18.0694 20.0596 18.5116 17.5648 18.5892 15.0455C18.5746 14.8279 18.4789 14.6238 18.3211 14.4732C18.1634 14.3227 17.9549 14.2368 17.7369 14.2324ZM8.08678 9.45138C7.49086 10.3779 7.23466 11.4824 7.36181 12.5766C7.72301 15.5058 7.19386 18.4759 5.84327 21.1001C5.73289 21.308 5.54709 21.4657 5.32403 21.5409C5.23611 21.5504 5.14742 21.5504 5.0595 21.5409C4.92016 21.5372 4.78322 21.5038 4.65782 21.443C4.4499 21.3326 4.29215 21.1468 4.21695 20.9237C4.1483 20.7026 4.16941 20.4633 4.27573 20.2575C5.47867 17.9479 5.95347 15.328 5.63752 12.7432C5.4544 11.2486 5.80108 9.73709 6.61723 8.47168C6.74714 8.2768 6.94916 8.14152 7.17882 8.09559C7.40848 8.04966 7.64698 8.09683 7.84186 8.22675C8.03673 8.35667 8.17201 8.55868 8.21795 8.78834C8.26388 9.01801 8.2167 9.25651 8.08678 9.45138Z" fill="#CDCDCD"/>
</svg>
