<svg width="26" height="21" viewBox="0 0 26 21" fill="none" xmlns="http://www.w3.org/2000/svg">
<path d="M24.9733 8.56873L21.6033 1.64872C21.5291 1.49966 21.4128 1.37567 21.2688 1.29212C21.1248 1.20857 20.9595 1.16914 20.7933 1.17873H14.4033C14.2952 0.938824 14.1409 0.722592 13.9491 0.542427C13.7574 0.362262 13.532 0.221702 13.2858 0.128807C13.0396 0.0359115 12.7775 -0.00750673 12.5146 0.00106027C12.2516 0.00962727 11.9929 0.0700131 11.7533 0.178734C11.3093 0.37916 10.9537 0.73474 10.7533 1.17873H4.35327C4.20136 1.18221 4.05324 1.22683 3.92468 1.30784C3.79613 1.38884 3.69196 1.5032 3.62326 1.63873L0.0932619 8.63873C0.0205089 8.77691 -0.010742 8.93318 0.00326559 9.08872C0.00326559 10.2451 0.462615 11.3541 1.28027 12.1717C2.09793 12.9894 3.20692 13.4487 4.36327 13.4487C5.51961 13.4487 6.6286 12.9894 7.44626 12.1717C8.26392 11.3541 8.72327 10.2451 8.72327 9.08872C8.71967 8.91461 8.66006 8.74629 8.55327 8.60873L5.71327 2.88873H10.7133C10.9137 3.33272 11.2693 3.6883 11.7133 3.88873V16.4687H10.1833C9.65284 16.4687 9.14413 16.6794 8.76906 17.0545C8.39399 17.4296 8.18327 17.9383 8.18327 18.4687V19.6387C8.18527 19.8617 8.27092 20.0759 8.42326 20.2387C8.58252 20.3904 8.79333 20.4762 9.01326 20.4787H16.0133C16.2336 20.4782 16.4451 20.3922 16.6033 20.2387C16.6827 20.1603 16.7457 20.0669 16.7887 19.9639C16.8316 19.8609 16.8535 19.7503 16.8533 19.6387V18.4687C16.8535 18.2048 16.8015 17.9435 16.7002 17.6998C16.5989 17.456 16.4504 17.2348 16.2633 17.0487C16.0772 16.8616 15.8559 16.7131 15.6122 16.6118C15.3685 16.5105 15.1072 16.4585 14.8433 16.4587H13.3233V3.83872C13.7673 3.6383 14.1228 3.28272 14.3233 2.83872H19.3233L16.4733 8.55872C16.3519 8.70961 16.2819 8.89528 16.2733 9.08872C16.2733 10.2451 16.7326 11.3541 17.5503 12.1717C18.3679 12.9894 19.4769 13.4487 20.6333 13.4487C21.7896 13.4487 22.8986 12.9894 23.7162 12.1717C24.5339 11.3541 24.9933 10.2451 24.9933 9.08872C25.0418 8.91764 25.0348 8.73558 24.9733 8.56873ZM23.4033 9.89872C23.243 10.3975 22.9364 10.8366 22.5233 11.1587C22.0315 11.5483 21.4206 11.7567 20.7933 11.7487C20.2256 11.7512 19.6719 11.5734 19.2118 11.2409C18.7517 10.9084 18.4091 10.4385 18.2333 9.89872H23.4033ZM18.6233 8.22872L20.7933 3.88873L22.9533 8.22872H18.6233ZM9.88327 18.7987V18.4587C9.88327 18.3686 9.91909 18.2821 9.98285 18.2183C10.0466 18.1546 10.1331 18.1187 10.2233 18.1187H14.9133C14.958 18.1183 15.0023 18.1269 15.0435 18.1441C15.0848 18.1613 15.1221 18.1867 15.1533 18.2187C15.1863 18.2491 15.2124 18.2863 15.2296 18.3277C15.2469 18.3692 15.255 18.4139 15.2533 18.4587V18.7987H9.88327ZM12.2533 2.14872C12.2284 2.08606 12.2228 2.01744 12.237 1.95156C12.2513 1.88568 12.2848 1.82552 12.3333 1.77872C12.3975 1.71581 12.4834 1.68001 12.5733 1.67873C12.6128 1.66973 12.6538 1.66973 12.6933 1.67873C12.7441 1.70042 12.7888 1.73415 12.8236 1.77702C12.8585 1.81988 12.8823 1.87059 12.8932 1.92475C12.904 1.97891 12.9015 2.03489 12.8858 2.08785C12.8702 2.14082 12.8418 2.18917 12.8033 2.22872C12.7648 2.26625 12.7182 2.29442 12.6671 2.31103C12.616 2.32764 12.5617 2.33225 12.5085 2.32452C12.4553 2.31678 12.4046 2.2969 12.3604 2.26641C12.3161 2.23593 12.2795 2.19565 12.2533 2.14872ZM2.18327 8.22872L4.34326 3.88873L6.51326 8.22872H2.18327ZM6.96327 9.89872C6.78082 10.4441 6.42958 10.9174 5.96037 11.2499C5.49117 11.5825 4.92833 11.7572 4.35327 11.7487C3.73747 11.7504 3.14017 11.5383 2.66327 11.1487C2.26343 10.8224 1.96507 10.3888 1.80327 9.89872H6.96327Z" fill="#CDCDCD"/>
</svg>
