<svg width="25" height="24" viewBox="0 0 25 24" fill="none" xmlns="http://www.w3.org/2000/svg">
<path d="M3.40653 9.50785L0.0348304 22.7946C-0.0103423 22.9568 -0.0115988 23.1282 0.031197 23.291C0.0739927 23.4539 0.159305 23.6025 0.278393 23.7216C0.39748 23.8407 0.546082 23.926 0.70897 23.9688C0.871857 24.0116 1.04319 24.0103 1.20544 23.9652L14.4922 20.5735C14.6383 20.5374 14.7736 20.4667 14.8868 20.3675C14.9999 20.2683 15.0876 20.1433 15.1425 20.0032L17.7838 13.2697L18.2141 13.7C18.5737 14.0556 19.059 14.255 19.5647 14.255C20.0705 14.255 20.5558 14.0556 20.9154 13.7L23.5067 11.1087C23.8623 10.749 24.0617 10.2637 24.0617 9.75797C24.0617 9.25224 23.8623 8.7669 23.5067 8.40728L15.6227 0.563312C15.446 0.384836 15.2356 0.243163 15.0038 0.146475C14.7719 0.0497866 14.5232 0 14.2721 0C14.0209 0 13.7722 0.0497866 13.5403 0.146475C13.3085 0.243163 13.0981 0.384836 12.9214 0.563312L10.32 3.1046C9.96445 3.46421 9.76501 3.94955 9.76501 4.45528C9.76501 4.96102 9.96445 5.44635 10.32 5.80597L10.7503 6.23618L4.00684 8.87752C3.85656 8.91974 3.71966 8.99989 3.60927 9.11027C3.49889 9.22065 3.41874 9.35756 3.37652 9.50785H3.40653ZM7.64867 16.3513C7.53282 16.2368 7.44084 16.1005 7.37806 15.9503C7.31528 15.8 7.28295 15.6387 7.28295 15.4759C7.28295 15.313 7.31528 15.1518 7.37806 15.0015C7.44084 14.8512 7.53282 14.7149 7.64867 14.6004C7.88544 14.3923 8.19256 14.2821 8.50763 14.2923C8.8227 14.3024 9.1221 14.4321 9.345 14.655C9.5679 14.8779 9.6976 15.1773 9.70773 15.4924C9.71787 15.8074 9.60768 16.1145 9.39956 16.3513C9.2851 16.4672 9.14879 16.5592 8.99851 16.6219C8.84823 16.6847 8.68698 16.717 8.52412 16.717C8.36125 16.717 8.20003 16.6847 8.04976 16.6219C7.89948 16.5592 7.76314 16.4672 7.64867 16.3513ZM14.3221 1.84396L22.2061 9.72796L19.6148 12.3193L11.7308 4.43528L14.3221 1.84396ZM12.3211 7.70693L16.3731 11.709L13.6317 18.7825L4.18693 21.1938L7.18845 18.1922C7.85254 18.5187 8.61032 18.601 9.32903 18.4249C10.0477 18.2487 10.6815 17.8253 11.1194 17.2287C11.5573 16.6322 11.7713 15.9006 11.7239 15.1621C11.6765 14.4237 11.3708 13.7254 10.8603 13.1897C10.3246 12.6792 9.62636 12.3735 8.88789 12.3261C8.14942 12.2788 7.41783 12.4928 6.82129 12.9306C6.22475 13.3685 5.80132 14.0023 5.62516 14.721C5.44899 15.4397 5.53135 16.1975 5.85779 16.8616L2.85627 19.8631L5.26749 10.4183L12.3211 7.70693Z" fill="#CDCDCD"/>
</svg>
