<svg width="26" height="16" viewBox="0 0 26 16" fill="none" xmlns="http://www.w3.org/2000/svg">
<path fill-rule="evenodd" clip-rule="evenodd" d="M18.3847 3.59512C18.6134 3.58082 18.8428 3.58082 19.0715 3.59512C20.7406 3.57231 22.3514 4.20851 23.5544 5.36573C24.7574 6.52294 25.4556 8.10781 25.4975 9.77653C25.483 11.0586 25.0744 12.3052 24.327 13.3471C23.5797 14.389 22.5299 15.1757 21.3201 15.6004C20.7268 15.8603 20.0862 15.9948 19.4384 15.9956H4.62938C3.4969 16.0462 2.38807 15.6609 1.531 14.919C0.673938 14.177 0.133807 13.1348 0.0217247 12.0067C-0.0903577 10.8787 0.234132 9.75054 0.92844 8.85443C1.62275 7.95833 2.63409 7.36238 3.75439 7.18918C3.91204 5.20953 4.81797 3.36431 6.2879 2.02897C7.75783 0.693617 9.68133 -0.0315341 11.667 0.00105251C12.9974 -0.00673385 14.3088 0.317934 15.4819 0.945582C16.655 1.57323 17.6528 2.48398 18.3847 3.59512ZM20.6427 13.9445H20.7086V13.9727C21.5885 13.6726 22.3527 13.105 22.8942 12.3493C23.4357 11.5935 23.7275 10.6874 23.7287 9.75772C23.7141 9.1564 23.5806 8.56392 23.3357 8.01451C23.0909 7.46509 22.7396 6.96963 22.3022 6.55673C21.8648 6.14382 21.35 5.82167 20.7874 5.60886C20.2248 5.39606 19.6256 5.29683 19.0244 5.31689C18.7085 5.31657 18.3932 5.34808 18.0836 5.41096C17.8997 5.43695 17.7122 5.40793 17.5448 5.32757C17.3774 5.2472 17.2375 5.11909 17.1427 4.95936C16.604 3.9813 15.8105 3.16742 14.8463 2.60418C13.8822 2.04094 12.7835 1.74938 11.667 1.76046C10.0756 1.72509 8.53504 2.32229 7.38332 3.42111C6.23159 4.51992 5.56264 6.03065 5.52317 7.62198V7.93246C5.52347 8.17405 5.43084 8.4065 5.26444 8.58165C5.09805 8.7568 4.87066 8.86123 4.62938 8.87331C3.92321 8.87331 3.24594 9.15384 2.74661 9.65318C2.24727 10.1525 1.96674 10.8298 1.96674 11.5359C1.96674 12.2421 2.24727 12.9194 2.74661 13.4187C3.24594 13.918 3.92321 14.1986 4.62938 14.1986H19.4384C19.8536 14.2035 20.2648 14.1168 20.6427 13.9445ZM13.2005 5.27925L13.3322 5.35452L16.2959 7.72548C16.458 7.87954 16.5565 8.08876 16.5718 8.31185C16.5872 8.53494 16.5184 8.7557 16.379 8.93055C16.2396 9.1054 16.0397 9.22164 15.8188 9.25633C15.5979 9.29103 15.372 9.24164 15.1857 9.11794L13.6615 7.90424V11.9781C13.6615 12.2127 13.5684 12.4376 13.4025 12.6035C13.2366 12.7694 13.0117 12.8625 12.7771 12.8625C12.5426 12.8625 12.3176 12.7694 12.1518 12.6035C11.9859 12.4376 11.8927 12.2127 11.8927 11.9781V7.90424L10.3686 9.11794C10.2787 9.20331 10.1721 9.26907 10.0556 9.31105C9.93896 9.35302 9.8149 9.37029 9.69128 9.36177C9.56766 9.35324 9.44715 9.31911 9.33743 9.26153C9.2277 9.20395 9.13117 9.12417 9.05392 9.02728C8.97667 8.93039 8.9204 8.8185 8.88871 8.69871C8.85701 8.57891 8.85056 8.45383 8.86978 8.33142C8.88901 8.209 8.93348 8.09192 9.00037 7.98761C9.06726 7.8833 9.15509 7.79403 9.25832 7.72548L12.222 5.35452L12.3537 5.27925L12.4572 5.2228C12.664 5.14807 12.8903 5.14807 13.097 5.2228L13.2005 5.27925Z" fill="#CDCDCD"/>
</svg>
