<svg width="80" height="57" viewBox="0 0 80 57" fill="none" xmlns="http://www.w3.org/2000/svg">
<g clip-path="url(#clip0_282_1044)">
<path d="M50.7721 28.1211C50.6397 28.1205 50.5084 28.1461 50.3859 28.1963C50.2633 28.2466 50.1519 28.3205 50.058 28.4139C49.8721 28.6053 49.7671 28.8611 49.7652 29.128C49.7639 29.2605 49.789 29.392 49.8393 29.5146C49.8896 29.6373 49.964 29.7486 50.058 29.842C50.2584 30.0094 50.5111 30.101 50.7721 30.101C51.0331 30.101 51.2859 30.0094 51.4862 29.842C51.6746 29.6521 51.7802 29.3955 51.7802 29.128C51.7802 28.8605 51.6746 28.6038 51.4862 28.4139C51.3923 28.3205 51.2808 28.2466 51.1583 28.1963C51.0357 28.1461 50.9046 28.1205 50.7721 28.1211Z" fill="#80C242"/>
<path d="M50.7222 9.7688C49.5206 9.77348 48.3448 10.1176 47.3302 10.7614C46.3221 11.3974 45.5149 12.3061 45.0022 13.3821C44.8882 13.625 44.8737 13.9029 44.9618 14.1564C45.0499 14.4099 45.2335 14.6189 45.4736 14.7389C45.5915 14.797 45.72 14.8307 45.8513 14.8381C45.9826 14.8455 46.1139 14.8263 46.2376 14.7817C46.3619 14.7393 46.4762 14.6718 46.5732 14.5834C46.6703 14.4949 46.7481 14.3874 46.8018 14.2676C47.1563 13.5221 47.7131 12.8912 48.4088 12.4467C49.1044 12.0023 49.911 11.7623 50.7364 11.754C51.8761 11.7615 52.9699 12.204 53.7942 12.9911C54.6185 13.7782 55.1109 14.8504 55.1709 15.9885C55.2095 16.9367 54.9394 17.8719 54.4012 18.6535C53.8629 19.4351 53.0857 20.0209 52.1861 20.3231C51.4887 20.5444 50.8785 20.9792 50.4416 21.566C50.0046 22.1529 49.7631 22.8621 49.751 23.5937V25.3575C49.7527 25.5324 49.7997 25.7039 49.8872 25.8553C49.9748 26.0067 50.1001 26.1328 50.2508 26.2215C50.4026 26.3059 50.5735 26.3502 50.7472 26.3502C50.9209 26.3502 51.0916 26.3059 51.2434 26.2215C51.3942 26.1328 51.5195 26.0067 51.6071 25.8553C51.6947 25.7039 51.7416 25.5324 51.7433 25.3575V23.5937C51.7536 23.2842 51.8602 22.9857 52.0484 22.7399C52.2366 22.4941 52.497 22.3132 52.793 22.2226C54.1882 21.6974 55.3574 20.7035 56.1004 19.4111C56.8435 18.1187 57.1141 16.6083 56.8661 15.1383C56.618 13.6683 55.8665 12.3303 54.7405 11.3533C53.6145 10.3764 52.1838 9.82128 50.6936 9.78305L50.7222 9.7688Z" fill="#80C242"/>
<path d="M70.8596 0.0285645H31.1845C29.1899 0.0319738 27.2512 0.687748 25.664 1.89583C24.0769 3.10391 22.9285 4.79797 22.394 6.71963H9.11897C6.69784 6.7234 4.37693 7.68687 2.66493 9.39887C0.952923 11.1109 -0.0104593 13.4317 -0.0142365 15.8529V37.6685C-0.0104593 40.0896 0.952923 42.4105 2.66493 44.1225C4.37693 45.8345 6.69784 46.798 9.11897 46.8017H10.2187V55.278C10.2187 55.5299 10.3188 55.7715 10.4969 55.9496C10.675 56.1277 10.9165 56.2278 11.1684 56.2278C11.3451 56.228 11.5184 56.1785 11.6683 56.085L26.6214 46.8017H48.7584C50.3672 46.8002 51.9471 46.3734 53.3378 45.5645C54.7286 44.7556 55.8808 43.5935 56.6776 42.1958L68.3174 49.3582C68.4616 49.4459 68.6272 49.4922 68.7959 49.4922C68.9646 49.4922 69.1301 49.4459 69.2743 49.3582C69.4116 49.2799 69.5269 49.1682 69.6093 49.0333C69.6917 48.8984 69.7386 48.7449 69.7456 48.587V40.0821H70.8453C73.2677 40.0802 75.5904 39.1176 77.3039 37.4054C79.0175 35.6932 79.9819 33.3712 79.9857 30.9488V9.13327C79.9744 6.71833 79.0086 4.40582 77.299 2.70019C75.5893 0.994552 73.2746 0.0341937 70.8596 0.0285645ZM55.1496 41.2032L54.8924 41.6031C54.2377 42.6155 53.3399 43.4478 52.2809 44.0241C51.2219 44.6004 50.0354 44.9023 48.8298 44.9023H26.393C26.2162 44.9021 26.043 44.9515 25.893 45.0451L12.161 53.5642V45.852C12.1592 45.6007 12.0585 45.3602 11.8808 45.1825C11.7031 45.0048 11.4626 44.9041 11.2113 44.9023H9.16186C8.20796 44.9042 7.26305 44.7175 6.38149 44.3531C5.49994 43.9888 4.69904 43.4538 4.02486 42.779C3.35068 42.1041 2.81654 41.3027 2.45302 40.4208C2.0895 39.5389 1.90381 38.5938 1.90664 37.6399V15.8243C1.91041 13.9089 2.67304 12.0729 4.02748 10.7185C5.38192 9.36405 7.2178 8.60147 9.13327 8.5977H22.0727V25.9002H11.247C11.1222 25.9002 10.9988 25.9248 10.8835 25.9725C10.7683 26.0202 10.6636 26.0902 10.5754 26.1784C10.4872 26.2666 10.4172 26.3713 10.3695 26.4865C10.3218 26.6017 10.2972 26.7252 10.2972 26.8499C10.2972 26.9747 10.3218 27.0982 10.3695 27.2134C10.4172 27.3286 10.4872 27.4333 10.5754 27.5215C10.6636 27.6097 10.7683 27.6797 10.8835 27.7274C10.9988 27.7751 11.1222 27.7997 11.247 27.7997H22.0727V30.9488C22.0755 31.4854 22.1257 32.0207 22.2226 32.5484H11.247C10.9951 32.5484 10.7535 32.6485 10.5754 32.8266C10.3973 33.0047 10.2972 33.2463 10.2972 33.4982C10.2972 33.7501 10.3973 33.9916 10.5754 34.1697C10.7535 34.3478 10.9951 34.4479 11.247 34.4479H22.7725C22.7725 34.4479 22.7725 34.4479 22.7725 34.4979C23.4718 36.1515 24.6424 37.5628 26.1383 38.5558C27.6341 39.5487 29.3891 40.0796 31.1845 40.0821H53.3214L53.6499 40.2892L55.1496 41.2032ZM78.1219 30.9774C78.12 32.8947 77.357 34.7328 76.0006 36.0878C74.6443 37.4429 72.8054 38.2041 70.8881 38.2041H68.8387C68.5874 38.2059 68.3469 38.3066 68.1692 38.4843C67.9915 38.662 67.8908 38.9025 67.889 39.1538V46.8731L54.157 38.3469C54.0066 38.2544 53.8336 38.205 53.657 38.2041H31.1845C29.2685 38.2022 27.4315 37.4402 26.0766 36.0853C24.7218 34.7305 23.9598 32.8935 23.9579 30.9774V9.13327C23.9579 7.21599 24.719 5.37711 26.0741 4.02072C27.4291 2.66433 29.2672 1.90138 31.1845 1.89949H70.8453C72.7633 1.90138 74.6021 2.6641 75.9583 4.02028C77.3145 5.37647 78.0772 7.21533 78.0791 9.13327L78.1219 30.9774Z" fill="#80C242"/>
<path d="M11.247 21.1515H18.0523C18.3042 21.1515 18.5457 21.0514 18.7239 20.8733C18.902 20.6952 19.002 20.4536 19.002 20.2017C19.002 19.9498 18.902 19.7083 18.7239 19.5302C18.5457 19.352 18.3042 19.252 18.0523 19.252H11.247C10.9951 19.252 10.7535 19.352 10.5754 19.5302C10.3973 19.7083 10.2972 19.9498 10.2972 20.2017C10.2972 20.4536 10.3973 20.6952 10.5754 20.8733C10.7535 21.0514 10.9951 21.1515 11.247 21.1515Z" fill="#80C242"/>
</g>
<defs>
<clipPath id="clip0_282_1044">
<rect width="80" height="56.1992" fill="white"/>
</clipPath>
</defs>
</svg>
