<svg width="80" height="80" viewBox="0 0 80 80" fill="none" xmlns="http://www.w3.org/2000/svg">
<g clip-path="url(#clip0_282_1021)">
<path d="M79.9199 35.38C78.7601 25.6503 74.0806 16.6811 66.7638 10.1638C59.4469 3.64639 49.9985 0.0312331 40.1999 0C38.5856 0.00221186 36.9729 0.0990837 35.3699 0.290039C24.8101 1.54706 15.1818 6.94613 8.6016 15.3002C2.02146 23.6543 -0.97178 34.2796 0.279949 44.84C0.308816 45.109 0.434082 45.3585 0.63261 45.5423C0.831139 45.7261 1.08946 45.8319 1.35991 45.84H1.55992C1.82714 45.786 2.06741 45.6411 2.23991 45.43C2.41547 45.1987 2.49438 44.9083 2.45994 44.62C1.85057 39.6695 2.22486 34.6474 3.56138 29.842C4.8979 25.0365 7.17034 20.5423 10.2482 16.6174C13.3261 12.6924 17.1488 9.41394 21.497 6.97015C25.8452 4.52637 30.6332 2.96542 35.5862 2.37683C40.5392 1.78824 45.5596 2.1836 50.3594 3.54028C55.1592 4.89696 59.6439 7.18821 63.5559 10.2825C67.4679 13.3769 70.7302 17.2133 73.1557 21.5717C75.5813 25.9301 77.1221 30.7246 77.6899 35.68C77.7061 35.8279 77.7526 35.9709 77.8266 36.0999C77.9006 36.229 78.0005 36.3413 78.12 36.43C78.229 36.5235 78.3568 36.5925 78.4949 36.6322C78.6329 36.6719 78.7779 36.6814 78.9199 36.66C79.0712 36.6454 79.2178 36.6002 79.3511 36.527C79.4843 36.4539 79.6013 36.3545 79.6948 36.2347C79.7884 36.115 79.8565 35.9774 79.8952 35.8305C79.934 35.6836 79.9423 35.5303 79.9199 35.38Z" fill="#80C242"/>
<path d="M40.7 39.26C40.5071 39.1052 40.2673 39.0206 40.02 39.02H39.89C39.7411 39.0336 39.5967 39.078 39.4659 39.1503C39.3351 39.2226 39.2207 39.3212 39.13 39.44C39.0383 39.556 38.9707 39.6893 38.9312 39.8318C38.8917 39.9743 38.8811 40.1233 38.9 40.27C40.4642 53.2406 38.183 66.3849 32.34 78.07C32.2187 78.3346 32.2051 78.6359 32.3021 78.9103C32.3992 79.1847 32.5993 79.4106 32.8599 79.54C33.1226 79.6724 33.427 79.6951 33.7063 79.6033C33.9857 79.5114 34.2172 79.3124 34.35 79.05C40.3733 66.9922 42.7271 53.4324 41.12 40.05C41.1092 39.8962 41.0663 39.7464 40.9939 39.6104C40.9216 39.4743 40.8214 39.3549 40.7 39.26Z" fill="#80C242"/>
<path d="M64.48 22.09C64.3019 21.8604 64.0408 21.7097 63.7529 21.6705C63.4649 21.6312 63.1731 21.7064 62.94 21.88C62.7028 22.0558 62.5448 22.3182 62.5001 22.61C62.4783 22.7522 62.4856 22.8974 62.5217 23.0366C62.5578 23.1759 62.6219 23.3063 62.71 23.42C65.6145 27.354 67.4476 31.9748 68.03 36.83C69.2394 46.9668 68.831 57.2313 66.82 67.24C66.7692 67.5191 66.8283 67.8071 66.9848 68.0438C67.1413 68.2805 67.3832 68.4475 67.66 68.51C67.9481 68.5561 68.2432 68.4957 68.49 68.34C68.6121 68.2617 68.7167 68.1591 68.7975 68.0387C68.8784 67.9183 68.9337 67.7826 68.96 67.64C71.0249 57.3918 71.4435 46.88 70.2 36.5C69.5704 31.2831 67.5997 26.3185 64.48 22.09Z" fill="#80C242"/>
<path d="M12.13 43.42C11.5318 38.3975 12.2994 33.3067 14.3519 28.6838C16.4043 24.061 19.6657 20.0774 23.7923 17.1526C27.9189 14.2278 32.758 12.4702 37.7998 12.065C42.8415 11.6598 47.8992 12.6219 52.4399 14.85C52.3317 15.2342 52.2745 15.6309 52.2699 16.03C52.2653 17.0221 52.6038 17.9852 53.2282 18.7561C53.8525 19.5271 54.7242 20.0584 55.6956 20.2601C56.6669 20.4619 57.6781 20.3215 58.5577 19.8629C59.4374 19.4043 60.1314 18.6557 60.5222 17.7438C60.913 16.832 60.9765 15.8131 60.7019 14.8598C60.4273 13.9065 59.8316 13.0775 59.0156 12.5133C58.1997 11.949 57.2137 11.6843 56.2249 11.7639C55.236 11.8435 54.3052 12.2625 53.59 12.95C48.6917 10.5045 43.223 9.42992 37.7636 9.84022C32.3042 10.2505 27.0576 12.1303 22.5799 15.2805C18.1022 18.4307 14.5603 22.7338 12.3297 27.7336C10.0992 32.7334 9.26305 38.2436 9.90998 43.68C10.6097 49.7277 9.85193 55.855 7.69996 61.55C6.6828 61.3681 5.63417 61.5621 4.7494 62.0958C3.86463 62.6296 3.20405 63.4667 2.89063 64.4514C2.57722 65.436 2.63236 66.501 3.04578 67.4479C3.45921 68.3949 4.20273 69.1594 5.13789 69.5989C6.07305 70.0384 7.13611 70.123 8.12904 69.837C9.12197 69.551 9.97709 68.9139 10.5352 68.0443C11.0932 67.1746 11.3162 66.1318 11.1625 65.11C11.0089 64.0882 10.4891 63.157 9.69996 62.49C12.0396 56.4232 12.8734 49.8796 12.13 43.42ZM56.5499 13.99C56.9455 13.99 57.3322 14.1073 57.6611 14.3271C57.99 14.5469 58.2463 14.8592 58.3977 15.2247C58.5491 15.5901 58.5887 15.9922 58.5115 16.3802C58.4343 16.7682 58.2438 17.1245 57.9641 17.4042C57.6844 17.6839 57.3282 17.8744 56.9402 17.9516C56.5522 18.0288 56.15 17.9891 55.7846 17.8378C55.4191 17.6864 55.1067 17.43 54.887 17.1011C54.6672 16.7722 54.5499 16.3856 54.5499 15.99C54.5499 15.4596 54.7607 14.9509 55.1357 14.5758C55.5108 14.2007 56.0195 13.99 56.5499 13.99ZM6.99995 67.81C6.60666 67.8002 6.22503 67.6746 5.90278 67.4489C5.58052 67.2233 5.33198 66.9076 5.18824 66.5414C5.0445 66.1752 5.01195 65.7747 5.09467 65.3901C5.1774 65.0055 5.37174 64.6538 5.65333 64.3791C5.93492 64.1044 6.29127 63.9188 6.6778 63.8456C7.06434 63.7724 7.46388 63.8148 7.82642 63.9675C8.18897 64.1203 8.49844 64.3765 8.71607 64.7042C8.9337 65.032 9.04981 65.4166 9.04993 65.81C9.05002 66.0769 8.9967 66.3411 8.89307 66.5871C8.78945 66.8331 8.63765 67.0558 8.4466 67.2422C8.25556 67.4286 8.02916 67.5748 7.78071 67.6724C7.53226 67.7699 7.26677 67.8167 6.99995 67.81Z" fill="#80C242"/>
<path d="M46.8099 31.5C45.1194 30.1566 43.0668 29.3476 40.9142 29.1765C38.7617 29.0054 36.607 29.4798 34.7254 30.5392C32.8438 31.5986 31.3208 33.1949 30.3508 35.1241C29.3808 37.0533 29.008 39.2278 29.2799 41.37C29.5963 44.0243 29.7233 46.6977 29.6599 49.37C28.6456 49.6031 27.7506 50.1969 27.1416 51.0409C26.5327 51.885 26.2514 52.9216 26.35 53.9576C26.4487 54.9937 26.9206 55.9586 27.6778 56.6725C28.4351 57.3865 29.4261 57.8008 30.4662 57.8382C31.5063 57.8757 32.5245 57.5338 33.3312 56.8763C34.1379 56.2187 34.6781 55.2902 34.851 54.264C35.024 53.2377 34.818 52.1836 34.2714 51.2979C33.7248 50.4122 32.8748 49.7555 31.8799 49.45C31.9401 46.6644 31.8098 43.8778 31.4899 41.11C31.3431 39.9765 31.4223 38.8252 31.7231 37.7225C32.0239 36.6198 32.5402 35.5876 33.2422 34.6857C33.9443 33.7837 34.8181 33.0298 35.8133 32.4676C36.8084 31.9053 37.9051 31.5459 39.04 31.41C39.3718 31.3701 39.7057 31.3501 40.04 31.35C42.1874 31.3468 44.2592 32.1425 45.8525 33.5823C47.4457 35.0222 48.4464 37.0032 48.6599 39.14C50.2319 52.5122 48.27 66.0628 42.9699 78.44C42.8549 78.7186 42.8549 79.0314 42.9699 79.31C43.0837 79.5773 43.2945 79.7917 43.5599 79.91C43.8307 80.0242 44.1355 80.0274 44.4087 79.9189C44.6818 79.8104 44.9013 79.5989 45.0199 79.33C50.4864 66.5797 52.5039 52.6162 50.87 38.84C50.7121 37.4089 50.2719 36.0233 49.575 34.7634C48.8781 33.5035 47.9383 32.3943 46.8099 31.5ZM32.6699 53.5C32.6699 53.8956 32.5526 54.2822 32.3329 54.6111C32.1131 54.94 31.8007 55.1964 31.4353 55.3478C31.0698 55.4991 30.6677 55.5388 30.2798 55.4616C29.8918 55.3844 29.5354 55.1939 29.2557 54.9142C28.976 54.6345 28.7855 54.2782 28.7083 53.8902C28.6312 53.5022 28.6708 53.1001 28.8222 52.7346C28.9736 52.3692 29.2299 52.0569 29.5588 51.8371C29.8877 51.6173 30.2743 51.5 30.6699 51.5C30.9385 51.4959 31.2051 51.5459 31.4539 51.6471C31.7027 51.7483 31.9286 51.8987 32.118 52.089C32.3075 52.2794 32.4566 52.506 32.5566 52.7553C32.6566 53.0046 32.7053 53.2715 32.6999 53.54L32.6699 53.5Z" fill="#80C242"/>
<path d="M29.16 61.94C29.0636 61.9303 28.9664 61.9303 28.87 61.94C28.675 61.9386 28.4838 61.9942 28.32 62.1C28.0686 62.2477 27.8854 62.4884 27.81 62.77C26.6788 67.0786 25.0477 71.2402 22.95 75.17C22.8262 75.4283 22.807 75.7244 22.8965 75.9965C22.9859 76.2686 23.1771 76.4956 23.43 76.63C23.6897 76.7633 23.991 76.7909 24.2706 76.707C24.5502 76.6231 24.7865 76.4342 24.93 76.18C27.0896 72.1087 28.7676 67.7997 29.93 63.34C29.9698 63.1999 29.9806 63.0531 29.9617 62.9086C29.9427 62.7642 29.8945 62.6252 29.82 62.5C29.6822 62.2338 29.4451 62.0326 29.16 61.94Z" fill="#80C242"/>
<path d="M58.3801 38.1699C58.4542 38.3779 58.5892 38.5589 58.7675 38.689C58.9459 38.8192 59.1594 38.8927 59.3801 38.9H59.61C59.882 38.8421 60.1227 38.6852 60.2853 38.4597C60.448 38.2342 60.521 37.9563 60.49 37.68C60.1274 34.6403 59.0928 31.7194 57.4612 29.1292C55.8297 26.5389 53.6421 24.3442 51.0572 22.7042C48.4723 21.0643 45.5549 20.0202 42.5164 19.6475C39.4779 19.2749 36.3946 19.5832 33.49 20.5499C33.3517 20.5966 33.2241 20.6702 33.1142 20.7663C33.0044 20.8623 32.9147 20.9791 32.85 21.1099C32.7851 21.241 32.7472 21.3838 32.7386 21.5299C32.73 21.6759 32.7508 21.8222 32.8 21.96C32.8395 22.1003 32.9092 22.2303 33.0042 22.3408C33.0992 22.4514 33.2172 22.5399 33.35 22.6C33.4798 22.6683 33.6224 22.7088 33.7687 22.7191C33.915 22.7295 34.0619 22.7093 34.2 22.66C36.7654 21.8133 39.4858 21.5419 42.1679 21.865C44.85 22.1882 47.428 23.0979 49.7189 24.5297C52.0098 25.9615 53.9573 27.8802 55.423 30.1495C56.8888 32.4188 57.8369 34.983 58.2 37.66L58.3801 38.1699Z" fill="#80C242"/>
<path d="M59.99 49.79C59.8449 49.7849 59.7003 49.8088 59.5647 49.8603C59.429 49.9118 59.305 49.9899 59.1999 50.09C59.0911 50.1889 59.0039 50.3093 58.9437 50.4435C58.8835 50.5777 58.8515 50.7228 58.8499 50.8699C58.6086 59.2776 57.1293 67.6037 54.4599 75.58C54.3777 75.8556 54.4027 76.152 54.5299 76.41C54.5969 76.5416 54.69 76.6582 54.8034 76.7527C54.9169 76.8473 55.0484 76.9178 55.1899 76.96C55.2926 76.9761 55.3973 76.9761 55.5 76.96C55.7335 76.9584 55.9608 76.8845 56.1506 76.7484C56.3404 76.6123 56.4834 76.4207 56.5599 76.2C59.2951 68.0264 60.8147 59.4953 61.0699 50.8799C61.0649 50.5942 60.9498 50.3213 60.7486 50.1183C60.5474 49.9152 60.2757 49.7977 59.99 49.79Z" fill="#80C242"/>
<path d="M24.7 30.0699C24.8227 29.8254 24.8507 29.5442 24.7787 29.2803C24.7067 29.0164 24.5398 28.7884 24.31 28.64C24.1343 28.5254 23.9298 28.463 23.72 28.46C23.5377 28.4642 23.3588 28.5106 23.1975 28.5956C23.0361 28.6807 22.8967 28.802 22.7901 28.95C20.2027 32.9766 19.0929 37.7763 19.65 42.53C20.7926 51.95 19.0675 61.4956 14.7 69.9199C14.6307 70.0491 14.5879 70.1909 14.5742 70.3369C14.5604 70.4828 14.576 70.6301 14.62 70.77C14.6629 70.9099 14.7337 71.0397 14.8283 71.1514C14.9228 71.2632 15.0391 71.3545 15.17 71.4199C15.299 71.4891 15.4406 71.5319 15.5863 71.5457C15.7321 71.5594 15.8791 71.544 16.0188 71.5002C16.1585 71.4565 16.2881 71.3853 16.3999 71.2908C16.5117 71.1963 16.6035 71.0804 16.67 70.95C21.2367 62.1234 23.035 52.1246 21.83 42.2599C21.3379 37.9864 22.353 33.6751 24.7 30.0699Z" fill="#80C242"/>
</g>
<defs>
<clipPath id="clip0_282_1021">
<rect width="79.93" height="80" fill="white"/>
</clipPath>
</defs>
</svg>
