<svg width="80" height="67" viewBox="0 0 80 67" fill="none" xmlns="http://www.w3.org/2000/svg">
<g clip-path="url(#clip0_282_1031)">
<path d="M41.6443 25.9791C43.773 23.8509 45.2228 21.1392 45.8102 18.1869C46.3975 15.2347 46.0962 12.1746 44.9442 9.39366C43.7922 6.61273 41.8413 4.2359 39.3384 2.56382C36.8354 0.891736 33.8929 -0.000479285 30.8828 7.63096e-06C28.3777 -0.00250017 25.9107 0.613145 23.7006 1.79237C21.4904 2.9716 19.6054 4.67798 18.2126 6.76018C16.8199 8.84238 15.9624 11.2361 15.7163 13.729C15.4702 16.2219 15.843 18.7371 16.8017 21.0514C17.7604 23.3658 19.2753 25.4078 21.2122 26.9965C23.1491 28.5851 25.4481 29.6713 27.9053 30.1587C30.3625 30.646 32.9019 30.5196 35.2985 29.7905C37.6951 29.0615 39.8748 27.7523 41.6443 25.9791ZM17.5739 15.2248C17.5707 11.7584 18.9207 8.42777 21.3366 5.94196C23.7525 3.45615 27.0433 2.01159 30.5084 1.91594H30.8754C34.352 1.99759 37.6586 3.43603 40.0886 5.92372C42.5186 8.41141 43.879 11.7509 43.879 15.2285C43.879 18.706 42.5186 22.0456 40.0886 24.5333C37.6586 27.021 34.352 28.4594 30.8754 28.541C27.3469 28.5371 23.9639 27.1337 21.4689 24.6387C18.9738 22.1436 17.5704 18.7607 17.5666 15.2322L17.5739 15.2248Z" fill="#80C242"/>
<path d="M44.2723 39.2586C44.3862 39.0307 44.4073 38.7676 44.331 38.5245C44.2893 38.4038 44.2235 38.2929 44.1378 38.1982C44.052 38.1036 43.9479 38.0273 43.8318 37.9739C41.884 36.9988 39.8329 36.2454 37.717 35.7277C37.5076 35.6696 37.2846 35.6854 37.0855 35.7723C36.8863 35.8592 36.7231 36.0119 36.6232 36.2048L30.8387 47.517L23.9824 36.1021C23.8987 35.96 23.7796 35.8421 23.6368 35.7598C23.494 35.6775 23.3324 35.6335 23.1676 35.6322C23.0894 35.6255 23.0108 35.6255 22.9326 35.6322C16.3787 37.2803 10.5645 41.0735 6.41545 46.4078C2.2664 51.7421 0.021059 58.311 0.0367023 65.0688C0.0386395 65.3226 0.140809 65.5653 0.320943 65.7441C0.501077 65.9229 0.744523 66.0232 0.9983 66.0231H1.05708C1.29987 66.0082 1.52775 65.9011 1.69421 65.7237C1.86066 65.5463 1.9531 65.3121 1.95264 65.0688C1.94444 58.9115 3.94063 52.9187 7.63952 47.9961C11.3384 43.0735 16.5389 39.4886 22.4554 37.7831L22.727 37.7023L29.3925 48.7135C29.5556 48.9685 29.7803 49.1781 30.0459 49.3231C30.3115 49.4681 30.6094 49.5438 30.912 49.543C31.2135 49.5382 31.5083 49.4534 31.7662 49.2973C32.0241 49.1413 32.236 48.9196 32.3802 48.6548L37.9739 37.6436L38.2602 37.7317C39.8805 38.1974 41.4535 38.8143 42.9583 39.5743C43.183 39.6963 43.4466 39.7253 43.6924 39.655C43.9297 39.6028 44.1376 39.4607 44.2723 39.2586Z" fill="#80C242"/>
<path d="M57.1481 46.614C56.7819 47.6207 56.6641 48.7009 56.8046 49.7629C56.9451 50.8249 57.3398 51.8373 57.9551 52.7142C58.5704 53.591 59.3882 54.3065 60.3391 54.7998C61.29 55.2931 62.3459 55.5497 63.4171 55.5477C64.6344 55.5442 65.8274 55.2071 66.8665 54.5729C67.9055 53.9388 68.7509 53.0319 69.3105 51.9509C69.8702 50.8699 70.1228 49.6561 70.0409 48.4416C69.9589 47.2271 69.5456 46.0582 68.8458 45.0622C68.1461 44.0661 67.1867 43.281 66.0719 42.7921C64.9571 42.3032 63.7295 42.1293 62.5228 42.2893C61.3161 42.4493 60.1763 42.9371 59.2274 43.6995C58.2785 44.462 57.5568 45.47 57.1407 46.614H57.1481ZM67.0508 45.8285C67.4978 46.3605 67.8228 46.9839 68.0031 47.655C68.1833 48.326 68.2143 49.0284 68.0939 49.7127C67.9736 50.397 67.7048 51.0466 67.3064 51.6159C66.9081 52.1852 66.3899 52.6603 65.7882 53.0079C65.0646 53.4163 64.248 53.6312 63.4171 53.6318C62.3717 53.6334 61.3552 53.2894 60.5254 52.6535C59.6957 52.0176 59.0994 51.1254 58.8291 50.1156C58.6417 49.4129 58.6179 48.6766 58.7595 47.9633C58.9011 47.2499 59.2044 46.5785 59.6461 46.0008C60.0878 45.423 60.6561 44.9541 61.3073 44.6303C61.9585 44.3065 62.6752 44.1363 63.4024 44.1328C64.0987 44.1245 64.7879 44.2726 65.4194 44.5661C66.0508 44.8595 66.6082 45.291 67.0508 45.8285Z" fill="#80C242"/>
<path d="M75.3092 61.4204L79.8826 53.2134C80.0036 52.9965 80.0352 52.741 79.9708 52.5011C79.9063 52.2612 79.7509 52.0559 79.5375 51.9287L76.4617 50.0935V49.866C76.5131 49.199 76.5131 48.529 76.4617 47.862V47.6344L79.5375 45.7992C79.75 45.6694 79.9044 45.4628 79.9686 45.2222C80.0328 44.9817 80.0021 44.7256 79.8826 44.5072L75.3092 36.3076C75.2475 36.1949 75.1637 36.0959 75.0628 36.0164C74.9619 35.9369 74.846 35.8787 74.722 35.8451C74.5986 35.8126 74.4698 35.8056 74.3436 35.8246C74.2174 35.8435 74.0964 35.8879 73.9879 35.9552L70.8387 37.8491L70.6405 37.717C70.1719 37.3965 69.6813 37.1095 69.1723 36.8581L68.9667 36.7553V32.8867C68.9677 32.7602 68.9436 32.6347 68.8956 32.5176C68.8476 32.4005 68.7768 32.2941 68.6873 32.2046C68.5978 32.1151 68.4914 32.0443 68.3743 31.9963C68.2572 31.9483 68.1317 31.9241 68.0051 31.9251H58.8805C58.6254 31.9251 58.3809 32.0264 58.2005 32.2068C58.0202 32.3871 57.9189 32.6317 57.9189 32.8867V36.7553L57.7207 36.8508C57.4491 36.9902 57.1187 37.1664 56.8838 37.3059L56.2305 37.7243L56.0396 37.8418L52.8684 35.9552C52.7575 35.8857 52.6334 35.8401 52.504 35.821C52.3745 35.8019 52.2425 35.8098 52.1163 35.8443C51.9901 35.8788 51.8724 35.9391 51.7706 36.0213C51.6688 36.1036 51.5853 36.206 51.5251 36.3222L46.9517 44.5366C46.8288 44.7531 46.7962 45.0092 46.8607 45.2497C46.9253 45.4901 47.082 45.6954 47.2968 45.8212L50.3725 47.6637V47.884C50.3211 48.551 50.3211 49.221 50.3725 49.888V50.1156L47.2968 51.9581C47.082 52.0839 46.9253 52.2892 46.8607 52.5297C46.7962 52.7701 46.8288 53.0263 46.9517 53.2428L51.5397 61.4498C51.6014 61.5624 51.6853 61.6614 51.7862 61.7409C51.8871 61.8203 52.003 61.8787 52.127 61.9123C52.2504 61.9447 52.3791 61.9517 52.5053 61.9327C52.6315 61.9138 52.7526 61.8694 52.8611 61.8021L56.025 59.9082L56.2158 60.0403C56.6843 60.3608 57.1749 60.6479 57.6839 60.8992L57.8895 61.002V64.8706C57.8895 65.1256 57.9908 65.3702 58.1711 65.5506C58.3515 65.7309 58.5961 65.8322 58.8512 65.8322H67.9757C68.2355 65.8293 68.4836 65.7238 68.6658 65.5386C68.7545 65.4473 68.8241 65.3393 68.8708 65.2208C68.9174 65.1024 68.9401 64.9758 68.9374 64.8486V60.9726L69.1356 60.8698C69.4073 60.7377 69.7449 60.5542 69.9725 60.4147C70.2001 60.2752 70.4202 60.1358 70.6258 60.0036L70.8166 59.8788L73.9879 61.7728C74.0972 61.838 74.2185 61.8807 74.3445 61.8983C74.4706 61.916 74.599 61.9082 74.722 61.8755C74.8452 61.8424 74.9605 61.7851 75.0613 61.707C75.1622 61.6288 75.2464 61.5314 75.3092 61.4204ZM74.1347 59.6439L71.2644 57.9262C71.0974 57.8262 70.9039 57.7796 70.7097 57.7927C70.5155 57.8059 70.33 57.878 70.178 57.9996C69.8084 58.3004 69.4185 58.5751 69.0108 58.8218C68.574 59.091 68.1147 59.3218 67.6381 59.5118C67.4589 59.5813 67.3049 59.7032 67.1961 59.8617C67.0874 60.0202 67.0291 60.2079 67.0288 60.4V63.9456H59.8128V60.3927C59.8126 60.2024 59.7551 60.0165 59.6477 59.8594C59.5403 59.7023 59.3881 59.5811 59.2109 59.5118C58.2942 59.141 57.4323 58.6471 56.6489 58.0436C56.4977 57.9256 56.3138 57.8567 56.1222 57.8462C55.9306 57.8357 55.7404 57.8841 55.5771 57.9849L52.7216 59.7027L49.0512 53.1767L51.8627 51.4957C52.0302 51.402 52.1658 51.2604 52.2522 51.089C52.3385 50.9176 52.3717 50.7244 52.3472 50.534C52.1931 49.4752 52.1931 48.3996 52.3472 47.3407C52.3708 47.1523 52.3381 46.9612 52.2532 46.7914C52.1682 46.6215 52.0349 46.4806 51.8701 46.3865L49.0439 44.7054L52.7143 38.1794L55.5845 39.8972C55.7524 39.9942 55.9454 40.0391 56.1389 40.026C56.3324 40.013 56.5176 39.9425 56.6709 39.8238C57.0437 39.5328 57.4362 39.2679 57.8455 39.031C58.2833 38.7656 58.7424 38.5372 59.2182 38.3483C59.398 38.2775 59.5522 38.1542 59.6609 37.9945C59.7696 37.8347 59.8276 37.6459 59.8275 37.4527V33.8631H67.0215V37.4013C67.0202 37.5929 67.077 37.7804 67.1845 37.9389C67.292 38.0975 67.445 38.2198 67.6234 38.2896C68.5401 38.6603 69.402 39.1543 70.1853 39.7577C70.3375 39.8739 70.521 39.9416 70.7121 39.9521C70.9033 39.9625 71.0932 39.9153 71.2571 39.8164L74.1126 38.0987L77.783 44.6246L74.9715 46.3057C74.8041 46.3994 74.6684 46.541 74.5821 46.7124C74.4958 46.8837 74.4626 47.077 74.487 47.2674C74.6411 48.3262 74.6411 49.4017 74.487 50.4606C74.463 50.648 74.4956 50.8384 74.5807 51.0071C74.6657 51.1759 74.7993 51.3154 74.9642 51.4076L77.7904 53.0959L74.1347 59.6439Z" fill="#80C242"/>
</g>
<defs>
<clipPath id="clip0_282_1031">
<rect width="80" height="66.0598" fill="white"/>
</clipPath>
</defs>
</svg>
